<?xml version="1.0" encoding="UTF-8" standalone="no"?>
<!-- Generator: Adobe Illustrator 13.0.2, SVG Export Plug-In . SVG Version: 6.00 Build 14948)  -->
<svg
   xmlns:dc="http://purl.org/dc/elements/1.1/"
   xmlns:cc="http://creativecommons.org/ns#"
   xmlns:rdf="http://www.w3.org/1999/02/22-rdf-syntax-ns#"
   xmlns:svg="http://www.w3.org/2000/svg"
   xmlns="http://www.w3.org/2000/svg"
   xmlns:sodipodi="http://sodipodi.sourceforge.net/DTD/sodipodi-0.dtd"
   xmlns:inkscape="http://www.inkscape.org/namespaces/inkscape"
   version="1.0"
   x="0px"
   y="0px"
   width="319.141474806"
   height="313.340658906"
   viewBox="0 0 465.826 457.359"
   enable-background="new 0 0 465.826 457.359"
   xml:space="preserve"
   id="svg2748"
   sodipodi:version="0.32"
   inkscape:version="0.46"
   sodipodi:docname="University of Tromsø logo.svg"
   inkscape:output_extension="org.inkscape.output.svg.inkscape"><metadata
   id="metadata3069"><rdf:RDF><cc:Work
       rdf:about=""><dc:format>image/svg+xml</dc:format><dc:type
         rdf:resource="http://purl.org/dc/dcmitype/StillImage" /></cc:Work></rdf:RDF></metadata><defs
   id="defs3067"><inkscape:perspective
   sodipodi:type="inkscape:persp3d"
   inkscape:vp_x="0 : 228.6795 : 1"
   inkscape:vp_y="0 : 1000 : 0"
   inkscape:vp_z="465.82599 : 228.6795 : 1"
   inkscape:persp3d-origin="232.91299 : 152.453 : 1"
   id="perspective3071" />
	

		
		
		
		
		
		
		
		
		
		
		
		
		
		
		
		
		
		
		
		
		
		
		
		
		
	
			
		
			
		
			
		
			
		
			
		
			
		
			
		
			
		
			
		
			
		
			
		
			
		
			
		
			
		
			
		
			
		
			
		
			
		
				
			
				
			
				
			
				
			
				
			
				
			</defs><sodipodi:namedview
   inkscape:window-height="750"
   inkscape:window-width="1280"
   inkscape:pageshadow="2"
   inkscape:pageopacity="0.0"
   guidetolerance="10.0"
   gridtolerance="10.0"
   objecttolerance="10.0"
   borderopacity="1.0"
   bordercolor="#666666"
   pagecolor="#ffffff"
   id="base"
   showgrid="false"
   inkscape:zoom="1.0101474"
   inkscape:cx="232.91299"
   inkscape:cy="253.0026"
   inkscape:window-x="-8"
   inkscape:window-y="-8"
   inkscape:current-layer="svg2748" />
<g
   id="Norsk"
   display="none">
	<g
   display="inline"
   id="g2751">
		<path
   d="M31.625,282.259c-0.101-5.265,4.2-9.565,9.373-9.694c5.441,0.129,9.742,4.43,9.696,9.694    c0.046,5.347-4.255,9.65-9.696,9.691C35.825,291.909,31.524,287.605,31.625,282.259L31.625,282.259z"
   id="path2753" />
		<path
   d="M414.556,281.609c-0.008-5.182,4.29-9.485,9.702-9.37c5.204-0.115,9.508,4.188,9.365,9.37    c0.143,5.429-4.161,9.73-9.365,9.696C418.846,291.34,414.548,287.038,414.556,281.609L414.556,281.609z"
   id="path2755" />
		<path
   d="M318.581,128.116c3.704,3.979,8.517,8.266,11.638,12.279l-25.204,0.324c0.991,2.161,2.922,4.087,4.518,6.463h28.117    c2.544,3.694,5.339,7.304,6.462,11.955l-38.128-0.323c-6.522,4.672-13.217,9.586-19.391,14.868    c-0.085-0.08-22.28-16.644-31.99-24.884c12.017-6.785,24.057-13.717,36.192-20.683H318.581L318.581,128.116z"
   id="path2757" />
		<path
   d="M182.538,232.814c8.487,6.754,17.635,13.007,25.528,20.037l-38.131,21.977c-4.141-2.618-8.089-7.911-12.28-11.312h-51.057    c-1.282-3.148-1.476-7.003-2.585-10.342c10.547-0.413,21.431-0.124,32.315-0.323l0.323-0.322l-1.939-6.464l-31.345-0.32    c-0.458-4.354-1.519-8.492-2.586-12.608v-0.322H182.538L182.538,232.814z"
   id="path2759" />
		<path
   d="M362.53,199.532l-33.604-0.323c-0.526-2.493-0.767-4.18-1.616-7.432l33.283-0.324c-1.522-5.141-3.157-10.438-6.782-14.545    h-72.068l-63.013-48.792l-71.094-0.323c-4.474,3.627-8.085,8.524-11.957,12.926h32.638c-1.185,2.051-2.622,4.663-4.201,6.463    h-35.223c-2.113,2.482-6.533,8.166-7.109,11.632h72.063l16.805,18.419l-47.504,0.323c-16.425,1.532-30.676,9.621-42.008,21.975    c-2.823,3.442-7.832,6.425-7.756,11.313c0.696,1.472,0.888,3.494,2.909,3.874h28.759c3.501,0.965,3.407,5.298,5.496,7.76h142.825    c1.951-3.709,4.259-7.712,7.117-10.668h63.981C364.082,207.689,363.113,203.695,362.53,199.532z M174.781,211.486h-19.066    c-2.153-1.87-2.539-4.663-4.846-6.139h-21.654c7.206-9.889,18.183-15.28,29.409-18.098h16.157V211.486z M197.078,212.782    c-7.195,0.158-13.123-5.77-13.248-12.925c0.125-7.474,6.053-13.396,13.248-13.249c7.433-0.148,13.359,5.774,13.25,13.249    C210.438,207.013,204.511,212.94,197.078,212.782z"
   id="path2761" />
		<path
   d="M363.826,245.417c0.923-3.824,1.41-8.548,1.617-12.919l-0.647-0.649H258.48l-87.901,49.112l-57.843-0.322    c2.786,4.233,5.195,9.102,7.756,13.572l31.346-0.316c2.013,1.909,3.168,4.611,4.847,6.784l-0.646,0.644l-31.669-0.32    c3.191,4.959,6.561,10.403,11.958,12.606l31.99,0.32c4.552,3.802,7.586,7.015,12.281,8.727l116.011,0.322    c3.332-0.786,4.585-3.768,7.108-5.495l26.821,0.327l2.266-0.975c0.94-1.479,1.999-2.923,1.612-4.847    c-8.567-13.099-20.995-23.595-35.541-28.757c-11.26-5.431-27.297-3.458-38.782-3.237l18.745-17.125l81.106,0.322    c1.147-3.447,2.592-6.673,2.909-10.34c-12.067-0.088-35.945-0.038-35.869,0c0.931-2.154,1.362-4.859,1.615-7.106L363.826,245.417z     M274.638,289.045c13.844-2.193,25.593,2.62,35.866,10.02c3.303,2.423,6.962,5.988,9.048,9.044    c-5.359,0.603-12.775,0.022-19.063,0.648l-3.88,4.852l-21.972-0.326C274.516,313.384,274.516,296.192,274.638,289.045z     M267.523,301.002c-0.081,7.36-6.006,13.283-13.246,13.249c-7.388,0.034-13.317-5.889-13.25-13.249    c-0.066-7.27,5.863-13.195,13.25-13.249C261.518,287.807,267.442,293.732,267.523,301.002z"
   id="path2763" />
		<path
   fill="none"
   stroke="#000000"
   stroke-width="10.7717"
   stroke-miterlimit="3.8637"
   d="M80.746,228.291    c0.042-84.283,68.234-152.477,152.201-152.526c84.281,0.05,152.478,68.244,152.528,152.526    c-0.05,83.965-68.247,152.158-152.528,152.201C148.979,380.449,80.787,312.256,80.746,228.291L80.746,228.291z"
   id="path2765" />
		<g
   id="g2767">
			<path
   d="M5.973,177.389l-1.97,10.115l-1.722,12.038l0.973,0.042l4.844,0.398l0.12-0.855c0.783-5.561,2.497-6.819,5.008-7.046     c2.722-0.234,6.076-0.394,12.131,0.044c0.001,0,9.403,0.688,9.403,0.688c8.933,0.654,15.023,2.801,18.104,6.391     c1.962,2.284,2.777,5.145,2.494,8.747c-0.83,10.588-11.838,12.018-20.923,11.354l-19.156-1.396     c-7.873-0.576-7.884-1.166-8.003-6.821l-0.016-0.778l-6.376-0.888L0.32,223.285l0.053,13.95l0.843,0.042l3.897,0.282l0.143-0.811     c1.009-5.659,1.115-6.248,8.996-5.677l20.738,1.512c10.535,0.768,17.534-1.071,22.02-5.793c3.418-3.662,5.404-8.777,5.909-15.214     c0.506-6.443-1.472-12.575-5.424-16.822c-4.593-4.807-11.199-7.192-22.094-7.989l-9.577-0.698     c-6.32-0.458-9.51-1.056-12.017-1.633c-1.74-0.37-4.02-1.449-3.914-6.577l0.017-0.825l-3.777-0.466L5.973,177.389z"
   id="path2769" />
		</g>
		<g
   id="g2771">
			<path
   d="M32.803,112.01l-4.76,8.102l-5.996,11.616l4.449,1.697l0.348-0.782c2.494-5.589,4.126-6.177,7.068-5.427     c3.478,0.934,10.293,2.874,16.763,5.35c0,0,9.075,3.473,12.017,4.601c-3.574,1.27-50.416,17.949-50.416,17.949l-1.937,6.234     l-2.106,7.02l0.788,0.29l5.31,2.014l0.364-0.734c1.609-3.262,2.753-4.462,4.89-5.13c2.159-0.673,4.89,0.366,9.813,2.253     c0.195,0.073,16.839,6.445,16.839,6.445c6.457,2.473,9.807,4.231,12.25,5.515l0.57,0.299c2.431,1.208,3.47,2.755,2.041,7.473     l-0.24,0.793l4.524,1.794l3.252-10.931l3.896-10.772l-0.857-0.32l-2.731-0.936l-0.336,0.753c-2.522,5.659-4.136,5.9-7.209,5.099     c0.01,0.004-0.445-0.12-0.445-0.12l-12.606-4.151c0,0-11.266-4.309-15.887-6.076c3.66-1.249,51.142-17.479,51.142-17.479     l2.865-4.502L52.783,127.06l-12.046-5.32l-0.898-0.452c-1.901-0.98-2.755-1.978-2.755-3.687c0-0.922,0.25-2.048,0.711-3.493     l0.256-0.798l-4.864-1.956L32.803,112.01z"
   id="path2773" />
		</g>
		<g
   id="g2775">
			<path
   d="M56.066,80.242l-7.726,9.405l-8.864,11.939l0.763,0.515l3.106,2.199l0.535-0.624c3.837-4.471,4.151-4.836,9.756-0.864     c0.005,0.004,29.518,20.603,29.518,20.603c5.465,3.875,5.373,4.357,2.412,9.486l-0.409,0.712l3.889,2.757l0.505-0.821     c0.038-0.063,4.001-6.476,7.525-10.734l8.737-10.194l-0.792-0.583l-3.981-2.844l-0.538,0.625     c-3.789,4.412-4.096,4.771-9.707,0.796L62.435,92.428c-5.613-3.977-5.375-4.387-2.47-9.423l0.413-0.711l-3.791-2.682     L56.066,80.242z"
   id="path2777" />
		</g>
		<g
   id="g2779">
			<path
   d="M107.562,36.022l-7.852,5.351l-9.468,6.919l0.636,0.715l2.464,2.98l0.675-0.43c2.724-1.745,4.166-2.352,4.973-2.087     c0.923,0.302,1.672,2.08,2.632,4.557c0.006,0.019,2.371,5.659,2.371,5.659c2.907,6.883,6.792,16.134,10.021,25.254     c-3.158-1.849-25.15-14.729-25.15-14.729l-6.35-3.749c-1.167-0.706-2.147-1.34-2.229-1.89c-0.007-0.034-0.008-0.068-0.008-0.104     c0-0.881,1.449-2.619,2.73-4.051l0.517-0.577l-3.048-3.688l-10.104,9.052l-9.842,9.925l0.552,0.599l2.478,2.996l0.678-0.459     c4.091-2.77,5.595-2.704,11.499,0.492l12.787,6.748c9.226,4.801,20.71,10.776,29.903,16.084l0.542,0.316l4.247-3.518     l-0.202-0.588c-5.337-15.624-10.58-33.246-13.1-41.718l-0.906-3.033c-2.449-8.136-1.952-9.572,1.67-13.289l0.564-0.581     l-2.997-3.621L107.562,36.022z"
   id="path2781" />
		</g>
		<g
   id="g2783">
			<path
   d="M149.51,15.076l-18.83,8.458c-9.852,4.477-18.776,9.897-18.862,9.951l-0.684,0.417l1.917,4.199l0.78-0.281     c5.309-1.9,5.744-2.057,8.626,4.265l14.861,32.844c2.74,6.012,2.608,6.377-3.523,9.807l-0.725,0.404l2.023,4.432l0.879-0.581     c0.098-0.066,10.01-6.597,19.426-11.304c9.408-4.703,19.296-8.096,19.396-8.129l0.754-0.258l-2.984-14.382l-0.893,0.279     l-3.759,0.902l0.028,0.741c0.16,3.968-0.431,6.177-1.162,8.457c-0.76,2.489-3.304,3.809-7.094,5.538     c-2.899,1.322-5.751,1.923-7.449,1.572c-1.406-0.294-2.258-1.311-3.258-3.888c-0.006-0.014-4.328-10.588-5.538-13.546     c1.135-0.519,4.409-2.012,4.409-2.012c6.283-2.864,6.957-2.997,10.188,1.662l0.428,0.618l4.298-1.959l-7.861-17.236l-4.292,1.962     l0.18,0.727c0.37,1.487,0.605,2.595,0.605,3.491c0,2.244-1.485,3.128-6.064,5.217c0,0-2.855,1.305-4.331,1.977     c-0.636-1.612-7.353-18.658-7.353-18.658c-0.196-0.436-0.597-1.308-0.597-1.696c0-0.043,0.006-0.083,0.017-0.113     c0.12-0.322,1.286-0.852,2.059-1.204c0.001,0,3.723-1.704,3.723-1.704c4.01-1.825,6.234-2.271,7.932-1.582     c1.649,0.616,3.644,2.338,5.785,4.988l0.502,0.624l4.087-2.573l-6.88-12.755L149.51,15.076z"
   id="path2785" />
		</g>
		<g
   id="g2787">
			<g
   id="g2789">
				<path
   d="M230.519,55.4c-0.321-0.749-1.193-1.163-2.517-1.79l-4.08-2.373c-2.778-2.173-4.864-4.309-8.795-8.575      c-2.033-2.129-3.729-5.097-5.093-7.482c0,0-1.206-1.95-1.79-2.897c5.026-3.758,7.636-8.241,7.636-13.414      c0-1.121-0.122-2.275-0.359-3.458c-1.057-5.263-3.979-9.049-8.447-10.952c-4.291-1.854-8.85-1.612-15.758-0.514      c0,0.001-11.564,2.268-11.564,2.268l-13.198,3.555l0.202,0.839l0.783,3.881l0.844-0.099c5.53-0.646,6.192-0.487,7.533,6.225      l6.735,33.477c1.386,6.896,0.814,7.327-4.819,9.152l-0.783,0.252l0.975,4.851l13.171-3.984l13.432-2.64l-0.082-0.865      l-0.436-3.299l-0.905,0.11c-5.841,0.709-6.416,0.575-7.816-6.341c0,0-1.814-9.029-2.38-11.84      c0.345-0.075,0.701-0.155,0.701-0.155c2.243-0.489,3.631,0.086,5.348,2.217c0.006,0.008,9.304,10.395,9.304,10.395l2.297,2.451      c3.721,4,5.771,6.205,15.951,5.082c1.647-0.181,3.107-1.295,3.697-2.304c0.223-0.383,0.336-0.773,0.336-1.14      C230.641,55.813,230.599,55.599,230.519,55.4z M200.385,30.194c-1.26,1.724-3.607,2.936-7.189,3.725      c-0.003,0-0.644,0.139-1.255,0.273c-0.337-1.68-4.075-20.266-4.075-20.266c-0.166-0.827-0.249-1.424-0.249-1.859      c0-0.379,0.063-0.634,0.188-0.806c0.146-0.229,0.679-0.826,3.036-1.342c2.231-0.49,4.468-0.099,6.31,1.098      c2.437,1.589,4.161,4.586,4.98,8.664c0.268,1.329,0.403,2.571,0.403,3.729C202.532,26.082,201.82,28.32,200.385,30.194z"
   id="path2791" />
			</g>
		</g>
		<g
   id="g2793">
			<path
   d="M239.586,5.627c-3.306,2.993-5.246,7.195-5.472,11.831c-0.411,8.567,5.472,13.779,14.434,18.971     c6.752,4.083,9.314,7.281,9.117,11.392c-0.126,2.589-1.005,4.69-2.536,6.082c-1.396,1.265-3.287,1.877-5.475,1.77     c-7.518-0.372-11.918-9.797-13.333-15.308l-0.233-0.907l-4.633,1.348l0.05,0.727c0.312,4.672,1.072,12.5,1.898,14.922     l0.127,0.383l5.456,2.332c2.634,0.945,5.68,1.527,8.792,1.679c6.696,0.332,12.68-1.565,16.844-5.34     c3.421-3.1,5.429-7.358,5.649-11.988c0.467-9.583-6.783-14.956-14.68-19.333c-7.425-4.227-9.747-6.894-9.553-10.976     c0.106-2.208,0.965-4.147,2.417-5.464c1.391-1.258,3.274-1.897,5.307-1.797c5.029,0.25,8.44,4.083,10.435,11.718l0.213,0.813     l4.656-0.837l-0.564-6.694l-0.567-7.16l-0.729-0.304c-1.759-0.695-6.437-2.543-11.816-2.811     C249.067,0.363,243.454,2.121,239.586,5.627z"
   id="path2795" />
		</g>
		<g
   id="g2797">
			<path
   d="M284.417,6.627l-1.015,3.41l0.77,0.305c5.197,2.059,5.388,4.586,3.32,11.644l-9.181,31.432     c-1.878,6.436-2.363,6.504-8.178,5.379l-0.807-0.154l-1.354,4.619l0.99,0.174c0.073,0.012,7.191,1.278,12.726,2.966l12.72,4.205     l0.281-0.885l1.007-3.377l-0.769-0.305c-5.4-2.138-5.842-2.314-3.917-8.914l9.184-31.431c2.129-7.305,3.466-9.137,8.77-8.109     l0.807,0.154l1.316-4.497l-13.285-4.24l-13.161-3.203L284.417,6.627z"
   id="path2799" />
		</g>
		<g
   id="g2801">
			<path
   d="M320.565,17.646l-4.681,7.751l-4.449,7.304l4.252,2.248l0.472-0.514c2.372-2.595,4.842-5.08,6.794-5.685     c1.467-0.604,2.919-0.759,9.058,2.492c0,0,1.008,0.536,1.766,0.938c-0.808,1.521-18.452,34.848-18.452,34.848     c-3.218,6.059-3.718,5.844-9.851,3.225l-0.765-0.325l-2.229,4.213l13.423,6.174l12.72,7.667l0.465-0.831l1.786-3.371     l-0.705-0.448c-3.624-2.309-5.15-3.383-5.15-5.085c0-1.172,0.729-2.646,1.991-5.029c0,0,17.651-33.325,18.457-34.847     c0.933,0.494,2.596,1.373,2.596,1.373c4.14,2.19,5.736,3.526,6.332,5.297c0.19,0.608,0.282,1.344,0.282,2.216     c0,1.735-0.373,4.006-1.129,6.858l-0.194,0.732l4.304,1.981l7.463-16.373L364.497,40l-2.135-1.432l-0.434,0.161     c-1.267,0.467-1.796,0.159-3.088-0.586l-16.101-9.028l-15.235-7.598c0.034,0.017-1.405-0.664-1.405-0.664     c-1.313-0.582-1.714-0.757-1.852-1.975l-0.057-0.516l-3.21-1.407L320.565,17.646z"
   id="path2803" />
		</g>
		<g
   id="g2805">
			<path
   d="M375.226,48.558l-2.69,2.704l0.537,0.631c3.651,4.304,3.949,4.656-0.948,9.577c-0.002,0.003-24.585,24.985-24.585,24.985     c-4.646,4.679-5.039,4.685-10.408,0.159l-0.647-0.547l-4.136,4.347l0.85,0.602c0.08,0.058,8.333,5.923,17.054,13.615     c8.695,7.667,15.008,15.582,15.069,15.662l0.482,0.607l0.671-0.384c2.26-1.291,8.25-5.291,11.443-7.646l0.697-0.514l-2.656-3.917     l-0.683,0.288c-3.477,1.47-5.608,2.034-8.155,2.163c-2.709,0.175-5.02-1.443-8.098-4.295c-2.253-2.088-3.999-3.707-4.208-5.564     c-0.024-0.223-0.04-0.453-0.04-0.694c0-1.22,0.422-2.67,2.296-4.706c0.001,0,8.647-8.488,11.039-10.833     c0.899,0.895,3.415,3.4,3.415,3.4c2.816,2.796,4.126,4.179,4.126,5.735c0,1.15-0.721,2.398-2.087,4.386l-0.426,0.62l3.347,3.328     l13.355-13.433l-3.353-3.33l-0.614,0.427c-4.424,3.06-5.084,2.926-10.068-2.035c0,0-2.294-2.278-3.427-3.407     c1.108-1.17,13.443-14.173,13.443-14.173c0.327-0.331,1.122-1.134,1.434-1.134c0.347-0.003,1.257,0.9,1.853,1.497     c0.007,0,2.909,2.886,2.909,2.886c3.125,3.109,4.322,5.032,4.274,6.858c0.006,1.766-0.903,4.238-2.624,7.176l-0.407,0.691     l3.847,2.916l9.493-10.913l-0.545-0.603c-0.072-0.079-7.454-8.054-13.494-13.648c-6.043-5.595-16.038-13.478-16.142-13.558     l-0.629-0.497L375.226,48.558z"
   id="path2807" />
		</g>
		<g
   id="g2809">
			<path
   d="M414.947,87.314l-8.955,4.854l-6.441,3.457l2.513,4.099l0.666-0.202c3.363-1.024,6.753-1.909,8.743-1.433     c1.565,0.222,2.899,0.825,6.53,6.754c0,0,0.598,0.972,1.044,1.7c-1.468,0.9-33.622,20.607-33.622,20.607     c-5.853,3.583-6.173,3.145-10.118-2.233l-0.489-0.669l-4.064,2.493l8.18,11.791l7.684,13.448l0.817-0.555l2.836-1.982l-0.357-0.7     c-1.411-2.775-2.2-4.432-2.2-5.691c0-1.68,1.407-2.651,4.626-4.625c0,0,32.156-19.704,33.625-20.605     c0.552,0.901,1.533,2.503,1.533,2.503c2.207,3.597,2.862,5.408,2.862,6.805c0,0.346-0.041,0.664-0.106,0.979     c-0.442,1.858-2.191,4.278-5.347,7.378l-0.54,0.531l2.684,3.893l15.812-10.879l-0.4-0.737l-1.292-2.22l-0.482-0.028     c-2.043-0.118-2.386-0.684-3.422-2.361c-0.164-0.283-4.965-9.734-8.477-15.123l-9.604-14.39c0.02,0.032-0.959-1.375-0.959-1.375     c-0.837-1.134-1.093-1.476-0.61-2.551l0.225-0.5l-2.216-2.798L414.947,87.314z"
   id="path2811" />
		</g>
		<g
   id="g2813">
			<path
   d="M446.486,138.797l-3.616,1.189l0.188,0.804c1.303,5.494,1.406,5.941-5.197,8.106l-34.679,11.172     c-6.275,2.056-6.629,1.885-9.355-4.591l-0.323-0.768l-4.614,1.525l0.469,0.932c0.05,0.101,5.021,10.067,8.411,21.13     c3.396,11.075,4.843,19.928,4.854,20.016l0.134,0.796l0.807-0.04c2.585-0.127,10.76-1.029,14.675-1.67l0.858-0.139l-0.587-4.699     l-0.739-0.054c-3.887-0.279-6.188-1.012-8.446-2.026c-2.485-1.072-3.769-3.67-5.028-7.519l-0.522-1.543     c-0.614-1.786-1.167-3.378-1.167-4.625c0-0.312,0.035-0.599,0.112-0.868c0.387-1.367,0.953-2.099,4.749-3.342     c0,0,12.88-4.151,14.405-4.64c0.396,1.211,1.502,4.577,1.502,4.577c0.861,2.625,1.386,4.309,1.386,5.558     c0,1.872-1.177,2.762-4.17,4.381l-0.664,0.358l1.477,4.488l18.001-5.9l-1.47-4.489l-0.743,0.099     c-5.331,0.717-5.856,0.297-8.056-6.388c0,0-0.991-3.032-1.491-4.563c1.578-0.508,18.715-6.034,18.715-6.034     c1.979-0.652,1.981-0.652,2.792,1.812l1.275,3.894c1.37,4.188,1.568,6.447,0.695,8.052c-0.793,1.574-2.727,3.364-5.598,5.2     l-0.674,0.429l2.104,4.368l5.685-2.462l7.688-3.109l-0.175-0.779l-5.589-19.292c-2.684-8.353-6.92-18.731-6.962-18.834     l-0.319-0.777L446.486,138.797z"
   id="path2815" />
		</g>
		<g
   id="g2817">
			<path
   d="M461.651,189.08l-13.421,0.083l-5.183,0.011l0.276,4.795l0.682,0.137c3.449,0.687,6.849,1.51,8.383,2.874     c1.279,0.937,2.163,2.1,2.558,9.034c0,0.002,0.065,1.14,0.114,1.992c-1.721,0.101-39.369,2.269-39.369,2.269     c-6.847,0.389-6.92-0.15-7.856-6.749l-0.116-0.821l-4.367,0.254l1.521,14.897c0.587,6.911,0.229,13.599,0.221,13.667     l-0.057,1.019l4.381-0.294l0.019-0.822c0.161-7.272,0.428-7.57,7.021-7.945c0,0,33.666-1.94,39.361-2.266     c0.063,1.053,0.175,2.935,0.175,2.935c0.058,1.017,0.089,1.911,0.089,2.699c0,2.84-0.397,4.343-1.336,5.46     c-1.276,1.426-3.965,2.731-8.203,3.97l-0.729,0.213l0.532,4.71l19.354-2.259l0.007-0.834l-0.078-2.532l-0.649-0.17     c-1.918-0.501-2.138-1.916-2.271-4.188c0,0.065-0.221-16.976-0.221-16.976c-0.451-9.037-1.746-17.251-1.755-17.332     c-0.141-2.453-0.043-3.331,1.705-3.985l0.728-0.272l-0.766-3.581L461.651,189.08z"
   id="path2819" />
		</g>
		<g
   id="g2821">
			<path
   d="M80.97,308.958l-3.744,2.338l0.406,0.773c2.821,5.379,3.054,5.817-3.081,9.588l-29.316,18.032     c-6.028,3.704-6.461,3.426-10.313-1.414l-0.518-0.654l-4.203,2.592l15.575,23.897l4.198-2.589l-0.408-0.775     c-2.782-5.307-3.009-5.741,3.131-9.52l29.316-18.021c6.176-3.8,6.485-3.411,10.26,1.338l0.522,0.655l4.792-2.976l-8.651-11.858     c-3.958-5.498-6.595-10.959-6.62-11.013l-0.456-0.951L80.97,308.958z"
   id="path2823" />
		</g>
		<g
   id="g2825">
			<path
   d="M114.684,351.845l-5.353,7.651l-5.52,7.842l4.06,2.681l0.53-0.511c2.582-2.478,5.243-4.834,7.228-5.291     c1.496-0.496,2.944-0.531,8.788,3.347c0,0,0.981,0.651,1.702,1.129c-0.894,1.451-21.273,34.472-21.273,34.472     c-3.684,5.979-4.164,5.716-10.033,2.498l-0.776-0.424l-2.351,3.949l12.047,8.572l12.951,7.949l0.454-0.814l1.848-3.116     l-0.634-0.496c-3.28-2.582-4.736-3.835-4.736-5.476c0-1.27,0.863-2.768,2.419-5.288c0,0,18.132-29.39,21.24-34.426     c0.903,0.598,2.445,1.616,2.445,1.616c3.943,2.62,5.427,4.141,5.884,6.027c0.091,0.427,0.135,0.908,0.135,1.445     c0,1.905-0.571,4.51-1.732,7.889l-0.244,0.709l4.148,2.428l9.134-16.787l-0.85-0.448l-2.401-1.168l-0.339,0.097     c-1.774,0.514-2.62,0.364-4.308-0.753c-0.162-0.091-7.586-3.907-15.295-8.971c-8.179-5.378-13.417-10.06-13.47-10.106     c-1.877-1.254-2.324-2.066-2.381-4.217l-0.011-0.388l-2.689-2.501L114.684,351.845z"
   id="path2827" />
		</g>
		<g
   id="g2829">
			<g
   id="g2831">
				<path
   d="M196.133,397.606c-2.738-3.793-5.184-5.357-12.462-7.974c-0.024-0.01-12.904-4.408-12.904-4.408l-12.426-5.229      l-0.379,0.896l-1.423,3.932l0.765,0.358c5.375,2.542,5.599,3.153,3.438,9.375l-11.128,32.063      c-2.278,6.567-2.996,6.626-8.824,5.138l-0.799-0.206l-1.792,4.664l12.829,5.143l13.666,4.698l0.308-0.854l1.522-4.124      l-0.772-0.36c-3.49-1.636-4.939-2.401-4.939-4.453c0-1.17,0.476-2.762,1.313-5.175c0,0,2.973-8.573,3.92-11.304      c0.333,0.119,0.68,0.244,0.68,0.244c2.224,0.794,3.158,2.052,3.569,4.796c0,0.008,0.709,4.64,0.709,4.64l1.745,10.206      l0.261,1.338c0.644,3.555,1.373,7.584,9.939,10.333l0.607,0.198c2.943,0.969,4.823,1.513,5.727,1.41      c0.891-0.1,1.638-0.698,1.901-1.529c0.063-0.194,0.092-0.392,0.092-0.579c0-0.465-0.18-0.896-0.521-1.199      c-0.87-0.738-2.243-1.901-3.18-4.012c-0.972-2.365-1.66-4.76-2.464-10.569l-1.136-7.49c0,0-0.655-4.396-0.853-5.724      c7.575-0.621,12.608-4.056,14.811-10.396c0.647-1.868,0.969-3.703,0.969-5.476C198.902,402.97,197.973,400.138,196.133,397.606z       M184.085,407.912c-1.472,4.246-3.643,6.775-6.836,7.96c-1.973,0.784-4.636,0.541-8.164-0.726c0,0-0.658-0.238-1.27-0.453      c0.552-1.594,6.739-19.425,6.739-19.425c0.592-1.694,0.938-2.13,1.278-2.265c0.19-0.09,0.945-0.354,3.328,0.503      C183.427,395.038,186.961,399.627,184.085,407.912z"
   id="path2833" />
			</g>
		</g>
		<g
   id="g2835">
			<g
   id="g2837">
				<path
   d="M230.586,395.673l-0.083-0.003c-8.551-0.233-16.054,2.475-21.696,7.831c-5.837,5.542-9.312,13.67-9.524,22.298      c-0.444,17.785,11.614,31.034,28.67,31.5c8.174,0.226,15.731-2.554,21.282-7.819c5.895-5.591,9.127-13.463,9.359-22.766      C259.021,409.463,246.981,396.118,230.586,395.673z M243.752,428.687c-0.226,9.164-2.566,16.309-6.583,20.122      c-2.155,2.044-4.771,3.087-7.563,3.009c-9.521-0.264-15.895-11.52-15.498-27.379c0.219-8.825,2.745-16.164,6.93-20.141      c2.252-2.137,4.925-3.226,7.725-3.149h0.08C238.309,401.407,244.163,412.216,243.752,428.687z"
   id="path2839" />
			</g>
		</g>
		<g
   id="g2841">
			<path
   d="M320.8,373.328l-7.638,4.174l-8.178,3.887l-0.075,0.529c0,0-3.166,35.49-3.498,39.256     c-2.513-2.824-26.244-29.552-26.244-29.552l-8.859,2.1l-10.057,1.578l0.33,1.033l2.143,6.088l0.8-0.198     c6.269-1.563,6.917-1.436,9.342,8.091l4.103,16.79c2.252,9.017,2.779,12.346,3.133,14.987c0.348,2.631-0.229,4.224-4.444,6.153     l-0.739,0.339l1.468,4.419l10.438-2.108l11.138-2.722l-0.328-0.924l-1.209-3.698l-0.816,0.207     c-5.115,1.296-6.646,0.046-7.994-3.063c-1.324-2.844-2.707-7.044-4.354-13.244c-0.004-0.011-3.485-12.429-5.203-18.548     c3.767,4.532,28.413,34.171,28.413,34.171l3.303-1.163c0,0,2.887-39.896,3.339-46.129c1.861,5.569,9.434,28.191,9.434,28.191     c1.132,3.316,1.796,5.56,1.796,7.229c0,2.231-1.19,3.436-4.039,4.804l-0.718,0.347l1.507,4.586l13.024-5.582l11.493-5.569     l-0.271-0.74l-1.212-3.678l-0.809,0.194c-5.811,1.387-6.041,1.443-8.614-5.863c-0.006,0-10.886-30.617-10.886-30.617     c-2.313-6.52-2.253-6.693,3.377-9.358l0.718-0.339l-2.116-6.6L320.8,373.328z"
   id="path2843" />
		</g>
		<g
   id="g2845">
			<path
   d="M350.733,354.368c-1.858,0.607-6.785,2.216-11.215,5.487c-5.291,3.899-8.623,8.958-9.384,14.247     c-0.651,4.497,0.517,8.86,3.372,12.627c5.241,6.917,13.32,7.145,23.84,5.36c8.043-1.217,12.165-0.397,14.685,2.921     c1.563,2.066,2.237,4.25,1.94,6.304c-0.273,1.908-1.387,3.63-3.214,4.98c-6.261,4.61-15.902,0.141-20.611-3.226l-0.77-0.546     l-2.797,4.057l0.527,0.545c2.837,2.952,8.832,8.914,11.221,10.356l0.348,0.213l5.852-1.73c2.708-0.98,5.511-2.505,8.094-4.404     c5.603-4.133,9.139-9.543,9.96-15.238c0.674-4.648-0.479-9.093-3.332-12.854c-5.876-7.745-15.138-7.208-24.274-5.473     c-8.674,1.537-12.266,0.976-14.754-2.321c-1.342-1.759-1.922-3.8-1.642-5.74c0.275-1.901,1.362-3.642,3.073-4.899     c4.179-3.084,9.396-2.324,15.955,2.317l0.684,0.486l3.164-3.669l-4.872-4.896l-5.063-5.141L350.733,354.368z"
   id="path2847" />
		</g>
		<g
   id="g2849">
			<g
   id="g2851">
				<path
   d="M413.911,319.629c-6.957-5.181-15.83-6.935-24.469-5.021c-0.418-1.094-2.843-7.471-2.843-7.471l-0.817,0.257      l-4.12,1.306c0,0,2.248,6.56,2.637,7.686c-4.326,1.986-8.344,5.215-11.6,9.588c-4.642,6.244-6.618,12.76-6.618,18.916      c0,9.857,5.061,18.793,12.313,24.194c7.45,5.555,16.851,7.425,25.351,5.266c0.393,1.116,2.444,6.931,2.444,6.931l4.855-1.615      c0,0-1.945-6.097-2.294-7.197c4.284-1.968,8.361-5.229,11.506-9.456c4.498-6.043,6.695-12.631,6.695-19.051      C426.951,334.825,422.504,326.033,413.911,319.629z M386.11,356.699c-7.877-5.873-12.22-12.997-12.22-19.213      c0-2.601,0.76-5.043,2.338-7.168c2.569-3.449,6.462-5.284,11.007-5.217c0.382,1.116,11.835,34.855,12.841,37.813      C395.532,362.037,390.358,359.862,386.11,356.699z M416.829,358.529c-2.513,3.376-6.502,5.279-10.765,5.18      c-0.376-1.098-11.925-34.666-12.992-37.763c4.374,1.056,9.25,3.291,13.756,6.649c8.124,6.054,12.444,12.73,12.444,18.709      C419.272,353.878,418.472,356.32,416.829,358.529z"
   id="path2853" />
			</g>
		</g>
	</g>
	<path
   fill="#BABCBE"
   stroke="#B7B9BC"
   stroke-width="0.5"
   stroke-miterlimit="3.8637"
   d="M297.964,433.293   c0.234,1.469,0.476,3.327,0.476,3.327l-0.828-0.014c-0.189-1.399-1.268-1.506-2.315-1.145c-0.713,0.225-1.735,0.563-2.687,0.901   l-0.076,4.539c0.73,0.273,1.576,0.594,2.517,0.895c1.131,0.373,2.696,0.51,2.937-1.213l0.829,0.014c0,0,0.07,1.414,0.07,2.695   s-0.016,2.594-0.016,2.594h-0.813c-0.164-1.563-1.811-2.084-3.784-2.897l-12.071-5.047l-0.16-1.243   c4.162-1.445,8.173-2.812,12.264-4.281c2.118-0.769,2.143-1.031,2.136-2.465l0.827,0.015   C297.269,429.968,297.729,431.824,297.964,433.293z M286.189,438.458l-0.001,0.069c1.715,0.691,3.431,1.311,5.1,1.954l0.061-3.688   L286.189,438.458z"
   id="path2855" />
</g>
<path
   id="path2900"
   d="M 140.1382,370.46665 L 136.29283,378.9336 L 132.35129,387.54133 L 136.7994,389.41098 L 137.22468,388.82014 C 139.29358,385.93735 141.45964,383.16262 143.30352,382.35667 C 144.66858,381.59929 146.07528,381.29892 152.47729,384.02012 C 152.47729,384.02012 153.55289,384.47712 154.33901,384.81814 C 153.73133,386.38246 139.86955,422.2726 139.86955,422.2726 C 137.3704,428.75789 136.85293,428.58837 130.54608,426.53235 L 129.71634,426.2637 L 128.26701,430.12196 L 141.80463,436.41493 L 155.53456,441.78695 L 155.84782,440.92945 L 157.04634,437.85136 L 156.32366,437.47466 C 152.23838,435.33933 150.66217,434.39757 150.66217,432.42482 C 150.66217,431.26199 151.21037,429.74426 152.11447,427.40769 C 152.11447,427.40769 164.44563,395.46801 166.55518,389.99983 C 167.54453,390.41321 169.23871,391.12697 169.23871,391.12697 C 173.551,392.96688 175.27096,394.1763 176.06006,395.93493 C 176.46551,396.91337 176.67171,398.21895 176.67171,399.91016 C 176.67171,401.40013 176.5131,403.19147 176.20083,405.31886 L 176.09377,406.0574 L 180.57557,407.66534 L 186.42343,389.64295 L 185.51438,389.36637 L 182.96369,388.66748 L 182.6534,388.82213 C 181.01374,389.64295 180.16318,389.64989 178.31534,388.87169 C 178.25487,388.84889 161.83545,382.5708 161.83545,382.5708 C 152.8877,378.82555 147.06264,375.22107 147.00713,375.18637 C 147.02497,375.19827 146.50353,374.85923 146.50353,374.85923 C 144.72707,373.7083 143.86758,373.1016 143.74862,371.92985 L 143.70401,371.49168 L 140.57637,369.50307 L 140.1382,370.46665 z" /><path
   d="M 238.95108,455.2056 C 238.95108,455.2056 238.94711,455.2056 238.94513,455.2056 C 238.94215,455.2056 238.94513,455.21254 238.94215,455.21254 L 238.95108,455.2056 z M 239.65988,451.69827 C 238.65368,451.16692 237.0725,450.33718 235.70843,448.49727 C 234.25118,446.41448 233.0705,444.24941 231.03728,438.808 L 228.33095,431.84093 C 228.33095,431.84093 226.73193,427.70014 226.24915,426.45701 C 233.4482,424.22354 237.57114,419.81113 238.3305,413.19003 C 238.40783,412.48222 238.45144,411.79126 238.45144,411.11121 C 238.45144,406.74539 236.78898,403.00212 233.58698,400.19567 C 230.12922,397.11461 227.42091,396.13121 219.80352,395.17953 C 219.78171,395.1716 206.37,393.70146 206.37,393.70146 L 193.22,391.34506 L 193.04552,392.2898 L 192.51615,396.39986 L 193.33301,396.58127 C 199.08471,397.86802 199.43366,398.41524 198.68818,404.90349 L 194.87155,438.3272 C 194.09138,445.17532 193.40736,445.3835 187.44549,445.20803 L 186.63161,445.18325 L 185.90794,449.95551 L 199.43068,452.28316 L 213.66718,453.87127 L 213.7792,452.97709 L 214.3631,448.66084 L 213.53732,448.47843 C 208.98414,447.46826 207.65377,447.0529 207.65377,443.68435 C 207.65377,442.71384 207.76579,441.49649 207.94225,439.94803 C 207.94225,439.94803 209.10508,429.75715 209.28649,428.15912 C 209.63445,428.20472 209.9943,428.25231 209.9943,428.25231 C 212.31897,428.53583 213.49271,429.54897 214.48801,432.1185 C 214.48801,432.12742 216.22284,436.56363 216.22284,436.56363 L 220.07416,445.9436 L 220.62137,447.18375 C 222.0132,450.47993 223.59635,454.21824 232.47471,455.0222 L 233.03382,455.07574 C 236.11983,455.38503 238.07771,455.50597 238.94711,455.20362 C 239.78379,454.92406 240.37661,454.19147 240.45592,453.32901 C 240.46286,453.26953 240.46286,453.20906 240.46286,453.14363 C 240.46087,452.52603 240.16645,451.98278 239.65988,451.69827 z M 224.16141,412.76177 C 223.66277,417.18807 222.10837,420.10555 219.27316,421.94844 C 217.52643,423.13704 214.89643,423.47806 211.22355,423.00916 C 211.22355,423.00916 210.52863,422.92192 209.89121,422.84658 C 210.08352,421.18412 212.20894,402.59667 212.20894,402.59667 C 212.41018,400.83012 212.65206,400.33544 212.95045,400.13619 C 213.116,400.00731 213.79308,399.58897 216.28331,399.89827 C 220.74132,400.45341 225.15175,404.12629 224.16141,412.76177 z"
   id="path2906" /><path
   d="M 304.35412,414.27454 C 300.77145,397.54386 286.07597,387.46995 270.17106,390.83155 L 270.0858,390.84742 C 261.79035,392.60306 255.18412,396.95005 250.98484,403.42046 C 246.64182,410.11195 245.17564,418.7504 246.96499,427.11823 C 250.6577,444.36441 265.34922,454.34215 281.89255,450.84176 C 289.82419,449.1684 296.46511,444.74607 300.595,438.38569 C 304.98461,431.63176 306.28127,423.29169 304.35412,414.27454 z M 288.80907,440.53093 C 287.20906,443.00232 284.92801,444.61224 282.21374,445.18325 C 272.9795,447.12626 264.22803,437.74926 260.94375,422.37669 C 259.11177,413.82052 259.84833,406.16447 262.96111,401.37039 C 264.63546,398.78302 266.95914,397.11263 269.68134,396.53468 L 269.75965,396.51386 C 278.94334,394.57085 287.08812,403.63856 290.50226,419.60989 C 292.4066,428.49221 291.80388,435.92223 288.80907,440.53093 z"
   id="path2912" /><path
   id="path2922"
   d="M 353.18014,347.47669 L 346.80687,353.29977 L 339.85665,358.97415 L 339.91316,359.49955 C 339.91316,359.49955 345.26436,394.40728 345.8314,398.11387 C 342.74539,395.98846 313.57945,375.87931 313.57945,375.87931 L 305.54669,379.99036 C 305.54372,379.99036 296.23413,383.89422 296.23413,383.89422 L 296.79324,384.80922 L 300.29859,390.16142 L 301.02127,389.78174 C 306.67979,386.79287 307.33902,386.76214 311.92492,395.35995 L 319.85061,410.55904 C 324.11333,418.62351 325.42783,421.74026 326.41024,424.24337 C 327.37084,426.69691 327.19042,428.3673 323.5909,431.21639 L 322.96041,431.718 L 325.41098,435.62583 L 334.96939,431.12618 C 334.97237,431.12618 345.04726,425.87212 345.04726,425.87212 L 344.51492,425.06022 L 342.47377,421.78685 L 341.73324,422.18239 C 337.12256,424.63593 335.34312,423.7933 333.3099,421.11076 C 331.355,418.67903 329.03033,414.9655 325.981,409.3972 C 325.97306,409.38927 319.68704,398.2586 316.58715,392.77159 C 321.28506,396.24521 352.02326,418.95065 352.02326,418.95065 L 354.93777,417.04135 C 354.93777,417.04135 348.27999,377.98589 347.23513,371.85947 C 350.35286,376.79134 362.98242,396.7607 362.98242,396.7607 C 365.32592,400.41673 366.57401,402.63533 366.57401,404.4346 C 366.57401,405.99792 365.63324,407.25394 363.66346,408.87477 L 363.05776,409.37836 L 365.59854,413.4329 L 376.83131,404.96 L 376.81446,404.97091 L 386.55924,396.90445 L 386.12404,396.25513 L 384.08785,392.99761 L 383.35129,393.37134 C 378.08534,396.0866 377.8841,396.19267 373.67392,389.76587 C 373.67392,389.75993 355.95289,362.8681 355.95289,362.8681 C 352.17691,357.14514 352.19674,356.96373 356.98487,353.0678 L 357.59354,352.56619 L 353.99898,346.7213 L 353.18014,347.47669 z" /><path
   id="path2926"
   d="M 379.17878,320.39156 C 377.51929,321.37892 373.10093,324.00198 369.52322,328.12493 C 365.24761,333.03994 363.12021,338.66178 363.52467,343.94359 C 363.87263,348.43531 365.94947,352.40361 369.52322,355.42717 C 376.10565,360.98259 383.96691,359.45296 393.74936,355.44402 C 401.26761,352.52653 405.43021,352.42344 408.59057,355.09606 C 410.55242,356.75456 411.67163,358.71839 411.83222,360.7754 C 411.97696,362.67974 411.27609,364.58508 409.8,366.2872 C 404.75016,372.09441 394.44924,369.86094 389.15652,367.62946 L 388.29803,367.26663 L 386.47795,371.79305 L 387.10149,372.20445 C 390.47995,374.44287 397.56697,378.91477 400.20292,379.79408 L 400.58756,379.92394 L 405.86937,376.97473 C 408.2446,375.4808 410.63271,373.39999 412.74524,370.9752 C 417.26967,365.7608 419.519,359.75928 419.07984,354.07103 C 418.72098,349.43259 416.64315,345.38499 413.0694,342.36936 C 405.7167,336.14975 396.86809,338.67269 388.40212,342.32376 C 380.34359,345.69032 376.75002,345.91832 373.62931,343.27147 C 371.95495,341.85783 370.95172,340.01495 370.79708,338.07888 C 370.65036,336.1785 371.3314,334.25829 372.71134,332.6672 C 376.04419,328.82877 381.40333,328.42332 388.64401,331.45778 L 389.41526,331.78294 L 391.68243,327.53905 L 386.04374,323.94845 L 379.90344,319.98709 L 379.17878,320.39156 z" /><path
   d="M 449.25992,300.47175 C 449.25992,287.50515 441.20932,276.60547 427.47542,272.30111 C 419.2563,269.73455 410.38885,271.02725 402.94693,275.64487 C 402.2183,274.78043 397.82274,269.56702 397.82274,269.56702 L 397.14467,270.07755 L 393.71962,272.64213 C 393.71962,272.64213 397.97639,278.04785 398.70601,278.98069 C 395.30872,282.24812 392.61032,286.58321 391.0004,291.75201 C 389.88813,295.30791 389.37759,298.72305 389.37759,301.94884 C 389.37759,316.09017 399.13328,326.66569 410.44833,330.21366 C 419.24044,332.96956 428.64321,331.62631 435.8829,326.82727 C 436.59864,327.72542 440.44699,332.51553 440.44699,332.51553 L 444.45791,329.42258 C 444.45791,329.42258 440.64327,324.34796 439.95925,323.43395 C 443.32581,320.18536 446.07378,315.79475 447.61827,310.81034 C 448.7246,307.27526 449.25992,303.80659 449.25992,300.47175 z M 413.61166,316.10306 C 402.22127,312.52733 395.18778,305.4641 395.18778,298.14312 C 395.18778,296.98227 395.36523,295.81746 395.72706,294.6576 C 396.98704,290.5862 400.10775,287.68854 404.38336,286.264 C 405.23987,287.35447 426.93416,315.05621 428.7592,317.38782 C 424.22287,318.0649 418.63176,317.66837 413.61166,316.10306 z M 442.95208,307.74317 C 441.70399,311.73426 438.5238,314.72412 434.49801,316.02474 C 433.64943,314.9432 411.85899,287.34059 409.97348,284.95346 C 414.41365,284.50142 419.78468,285.08828 425.0992,286.76066 C 433.59094,289.41643 439.46458,293.45908 442.07773,298.45341 C 443.03337,300.27151 443.51317,302.19171 443.51317,304.1258 C 443.51317,305.33126 443.32581,306.54762 442.95208,307.74317 z"
   id="path2932" /><path
   d="M 32.859356,229.35368 C 32.75824,224.13334 37.022945,219.86764 42.151099,219.74472 C 47.542947,219.86764 51.807652,224.13433 51.763042,229.35368 C 51.807652,234.6573 47.543939,238.92003 42.151099,238.96563 C 37.022945,238.92102 32.75824,234.6573 32.859356,229.35368 L 32.859356,229.35368 z"
   id="path2934" /><path
   d="M 412.47163,228.7113 C 412.46271,223.56927 416.72444,219.30556 422.08754,219.42154 C 427.24841,219.30556 431.5141,223.57026 431.37234,228.7113 C 431.5141,234.09324 427.24841,238.35893 422.08754,238.32225 C 416.72444,238.35893 412.46271,234.09324 412.47163,228.7113 L 412.47163,228.7113 z"
   id="path2936" /><path
   d="M 317.32866,129.21936 C 320.99956,133.16089 325.77182,137.4137 328.86577,141.39291 L 303.87828,141.70815 C 304.86268,143.85438 306.77594,145.76467 308.3591,148.11512 L 336.23036,148.11512 C 338.75429,151.77511 341.52506,155.35778 342.63833,159.97144 L 304.83988,159.65124 C 298.37442,164.27976 291.73845,169.15314 285.61797,174.38439 C 285.53173,174.30806 263.53013,157.88369 253.90431,149.71909 C 265.81713,142.98895 277.75374,136.12101 289.78354,129.21837 L 317.32866,129.21837 L 317.32866,129.21936 z"
   id="path2938" /><path
   d="M 360.89666,200.01426 L 327.58398,199.69703 C 327.06254,197.21772 326.82462,195.54931 325.98298,192.32649 L 358.97744,192.00827 C 357.46863,186.91085 355.84682,181.66076 352.25424,177.59036 L 280.81101,177.59036 L 218.34428,129.21936 L 147.86562,128.89718 C 143.4314,132.49274 139.84972,137.35026 136.01327,141.70815 L 168.36832,141.70815 C 167.1936,143.74632 165.76806,146.33469 164.20474,148.11512 L 129.2861,148.11512 C 127.19043,150.58056 122.80974,156.21528 122.23873,159.65124 L 193.67601,159.65124 L 210.33532,177.90957 L 163.24414,178.23175 C 146.95955,179.74551 132.83308,187.77033 121.59833,200.01327 C 118.80179,203.42444 113.83621,206.38554 113.90957,211.22522 C 114.59953,212.68347 114.78987,214.68695 116.79434,215.07257 L 145.30303,215.07257 C 148.77368,216.02524 148.68248,220.32464 150.75238,222.76034 L 292.33919,222.76034 C 294.2713,219.08152 296.56127,215.11818 299.3935,212.1878 L 362.82083,212.1878 C 362.4352,208.10352 361.4746,204.14414 360.89666,200.01426 z M 174.7743,211.86859 L 155.87359,211.86859 C 153.73926,210.00985 153.35759,207.24602 151.07159,205.77885 L 129.60432,205.77885 C 136.74884,195.97855 147.63068,190.6333 158.75836,187.83973 L 174.7753,187.83973 L 174.7753,211.86859 L 174.7743,211.86859 z M 196.87801,213.14939 C 189.74538,213.30999 183.86877,207.43437 183.74684,200.33248 C 183.86976,192.9312 189.74538,187.05261 196.87801,187.19734 C 204.24657,187.05162 210.12318,192.93021 210.01512,200.33248 C 210.12318,207.43437 204.24657,213.30999 196.87801,213.14939 z"
   id="path2942" /><path
   d="M 182.46505,233.00872 C 190.87847,239.70318 199.94618,245.90593 207.77075,252.87102 L 169.97131,274.65254 C 165.86621,272.0622 161.95144,266.81409 157.79776,263.44357 L 107.1824,263.44357 C 105.9125,260.32187 105.72019,256.50524 104.6208,253.18825 C 115.07736,252.78181 125.86403,253.06731 136.65367,252.87102 L 136.97387,252.5538 L 135.05267,246.14385 L 103.97941,245.82167 C 103.52439,241.51434 102.47358,237.40825 101.41583,233.3309 L 101.41583,233.00872 L 182.46505,233.00872 L 182.46505,233.00872 z"
   id="path2940" /><path
   d="M 362.18241,245.50147 C 363.09642,241.70963 363.58019,237.02659 363.78539,232.68951 L 363.14301,232.0501 L 257.74968,232.0501 L 170.60972,280.7413 L 113.26917,280.4211 C 116.03102,284.6174 118.41814,289.44221 120.95793,293.87544 L 152.03119,293.55326 C 154.02674,295.45463 155.17272,298.12825 156.83816,300.28241 L 156.19677,300.92182 L 124.80132,300.60459 C 127.96565,305.52457 131.30544,310.92137 136.65466,313.09933 L 168.36932,313.41953 C 172.88185,317.19154 175.88856,320.37074 180.54286,322.06393 L 295.54912,322.38512 C 298.85224,321.61287 300.09338,318.65375 302.59352,316.93875 L 329.18399,317.25994 L 331.43034,316.29934 C 332.36021,314.83316 333.41102,313.40168 333.02837,311.49535 C 324.53564,298.5109 312.21538,288.10193 297.79548,282.9827 C 286.6321,277.59878 270.73512,279.55864 259.3487,279.78169 L 277.93218,262.80218 L 358.33506,263.1194 C 359.47211,259.70229 360.90459,256.50326 361.21884,252.86904 C 349.25645,252.78181 325.58347,252.83137 325.6608,252.86904 C 326.58372,250.72777 327.01099,248.05712 327.2608,245.81969 L 362.18241,245.50147 z M 273.76661,288.74927 C 287.4896,286.57231 299.13774,291.34755 309.3197,298.67943 C 312.59506,301.08539 316.22333,304.62345 318.29025,307.65295 C 312.97771,308.24676 305.626,307.67377 299.39251,308.29236 L 295.54714,313.10032 L 273.76562,312.77913 C 273.64567,312.88024 273.64567,295.83827 273.76661,288.74927 z M 266.71429,300.6036 C 266.63399,307.89682 260.76035,313.77541 253.58312,313.74171 C 246.25917,313.77541 240.37958,307.89682 240.44799,300.6036 C 240.38057,293.40059 246.26016,287.52299 253.58312,287.46847 C 260.76035,287.52299 266.63399,293.40158 266.71429,300.6036 z"
   id="path2944" /><path
   stroke-miterlimit="3.8637"
   d="M 81.554515,228.52692 C 81.595159,144.97359 149.19599,77.368799 232.43704,77.321215 C 315.98739,77.368799 383.59317,144.97458 383.64274,228.52692 C 383.59317,311.76004 315.98739,379.36186 232.43704,379.41142 C 149.19599,379.36285 81.595159,311.76004 81.554515,228.52692 L 81.554515,228.52692 z"
   id="path2946"
   style="fill:none;stroke:#000000;stroke-width:10.67831802;stroke-miterlimit:3.86369991" /><path
   id="path2862"
   d="M 27.523022,125.77746 L 22.99958,134.92745 C 22.997597,134.92745 18.20947,145.99764 18.20947,145.99764 L 19.129425,146.29008 L 23.661789,147.93965 L 23.999833,147.15055 C 26.189682,142.03628 28.158465,141.28089 30.626879,141.71905 C 33.271749,142.19886 36.51241,142.92253 42.214544,144.93096 L 51.028466,148.04374 C 59.399263,150.99989 64.662238,154.64799 66.673649,158.88295 C 67.950483,161.57739 67.984188,164.52858 66.769808,167.89712 C 63.216878,177.8025 52.31224,176.29568 43.794726,173.28501 L 25.843708,166.95239 C 18.467216,164.35014 18.609967,163.78112 19.971064,158.3397 L 20.159417,157.58927 L 14.295696,155.08318 L 10.133098,168.18461 L 6.5434891,181.53784 L 7.3355624,181.80054 L 10.988616,183.09522 L 11.340539,182.35568 C 13.783178,177.20275 14.038941,176.66545 21.422373,179.28058 L 40.861378,186.14059 C 50.731067,189.62313 57.906319,189.68955 63.431006,186.34876 C 67.660023,183.74256 70.895726,179.36385 73.056827,173.34151 C 75.222885,167.31918 74.933417,160.93897 72.26178,155.8356 C 69.122236,150.03731 63.429023,146.02936 53.217325,142.42785 L 44.241816,139.25857 C 38.36025,137.18966 35.446729,135.77404 33.176582,134.56065 C 31.610279,133.74975 29.710889,132.11504 31.151293,127.2486 L 31.384256,126.46247 L 27.892789,125.03396 L 27.523022,125.77746 z" /><path
   id="path2866"
   d="M 74.684592,63.966998 L 67.865228,70.30755 C 67.863245,70.30755 58.868901,79.632998 58.868901,79.632998 L 62.604236,82.512814 L 63.157398,81.870432 C 67.118756,77.27264 68.83475,77.178463 71.416175,78.725931 C 78.251401,82.958913 83.021684,86.416675 85.817237,88.56588 C 85.817237,88.56588 93.446519,94.447445 95.921872,96.352783 C 92.163737,96.545101 42.942181,99.072003 42.942181,99.072003 L 39.329772,104.43808 L 35.332726,110.51394 L 35.999892,111.00961 L 40.474759,114.43565 L 41.028913,113.83788 C 43.480474,111.20193 44.905016,110.38904 47.126588,110.35731 C 49.378892,110.33253 51.676797,112.10701 55.85129,115.32487 C 55.97025,115.41607 69.968832,126.19779 69.968832,126.19779 C 75.374559,130.36336 78.055117,132.98146 80.012995,134.89176 L 80.491808,135.36264 C 82.456626,137.19958 83.004832,138.96117 80.308412,143.03951 L 79.854382,143.72452 L 83.638292,146.7104 L 89.833118,137.2541 L 96.595977,128.12791 L 95.873296,127.5797 L 93.545652,125.91724 L 93.012316,126.53583 C 89.004366,131.19211 87.405349,130.96609 84.708929,129.33039 C 84.719834,129.33931 84.287614,129.06868 84.287614,129.06868 L 73.533657,121.55935 C 73.531675,121.55935 64.069423,114.27902 60.176467,111.28222 C 64.015891,111.13253 113.70833,109.21332 113.70833,109.21332 L 117.70736,105.74762 L 89.382063,83.935374 L 79.447937,75.458504 L 78.729222,74.779443 C 77.569365,73.662213 76.987454,72.70657 76.987454,71.599254 C 76.987454,70.469137 77.598114,69.171485 78.828355,67.382132 L 79.30122,66.697123 L 75.235772,63.45448 L 74.684592,63.966998 z" /><path
   id="path2870"
   d="M 109.93433,37.019654 L 99.780131,43.522783 L 87.779081,52.084907 L 88.341165,52.804613 L 90.593469,55.825198 L 91.290374,55.399917 C 96.275777,52.354549 96.683214,52.105725 100.75857,57.56201 C 100.76353,57.567958 122.31407,85.992385 122.31407,85.992385 C 126.28435,91.31484 126.05238,91.741112 121.69548,95.679669 L 121.09473,96.22391 L 123.91904,100.01278 L 124.64667,99.394186 C 124.70219,99.344619 130.39738,94.504942 135.01996,91.558707 C 135.02194,91.558707 146.36772,84.616418 146.36772,84.616418 L 145.80068,83.826327 L 142.91392,79.928415 L 142.21801,80.351713 C 137.29506,83.355445 136.89258,83.599313 132.81623,78.147985 L 112.22629,50.44822 C 108.14399,44.983014 108.49294,44.66777 112.77053,40.804554 L 113.37524,40.258331 L 110.61439,36.582477 L 109.93433,37.019654 z" /><path
   id="path2874"
   d="M 180.15128,8.1193875 L 171.05582,10.551122 L 159.92813,13.914707 L 160.28799,14.796992 L 161.62133,18.39354 L 162.38862,18.212126 C 165.50734,17.469619 167.05382,17.378417 167.72198,17.888952 C 168.48828,18.472846 168.60823,20.379175 168.69249,23.013141 C 168.69546,23.030985 169.05829,29.089007 169.05829,29.089007 C 169.52422,36.481361 170.13686,46.420443 170.17056,56.009586 C 167.85382,53.279461 151.99947,34.61072 151.99947,34.61072 L 146.74443,28.380206 C 145.94046,27.406719 145.26833,26.54327 145.26833,25.993081 C 145.26833,25.954419 145.2723,25.918732 145.27627,25.883044 C 145.43785,25.054291 147.45224,23.847842 149.18707,22.886251 L 149.86018,22.514502 L 148.21457,18.065409 L 135.79617,23.227269 L 123.33514,29.283308 L 123.65336,30.024824 L 124.99066,33.641198 L 125.77679,33.43401 C 130.50841,32.180968 131.89033,32.732148 136.37412,37.657079 L 146.12881,48.167168 C 153.1851,55.683438 161.96928,65.032679 168.8283,73.016857 L 169.23376,73.487739 L 174.35795,71.592314 L 174.36488,70.973724 C 174.48979,54.540434 175.36315,36.313826 175.78546,27.554427 L 175.9292,24.521946 C 176.30095,16.10654 177.23677,14.920908 181.84547,12.629943 L 182.56716,12.274055 L 180.94633,7.9052601 L 180.15128,8.1193875 z" /><path
   d="M 302.16923,28.172026 C 302.41706,26.951698 302.539,25.767058 302.539,24.622071 C 302.539,20.872858 301.22747,17.562804 298.66388,14.915951 C 295.45197,11.567236 291.19322,10.036621 284.46208,8.3850642 C 284.46109,8.3850642 273.02212,6.004879 273.02212,6.004879 L 259.5995,4.1818217 L 259.46072,5.0264355 L 258.6855,8.8688336 L 259.49343,9.1047703 C 264.79309,10.643316 265.32543,11.032909 263.9792,17.690686 L 257.25798,50.869536 C 255.87309,57.705753 255.18213,57.881218 249.33527,57.374648 L 248.52039,57.303273 L 247.55781,62.098339 L 260.92491,63.75981 C 260.92491,63.761793 274.36934,66.491917 274.36934,66.491917 L 274.61916,65.670104 L 275.53118,62.288675 L 274.66575,62.041834 C 270.70737,60.917665 269.30166,60.413077 269.30166,57.817773 C 269.30166,56.731275 269.5485,55.272036 269.9599,53.242782 C 269.9599,53.242782 271.77503,44.291065 272.33711,41.505425 C 272.6821,41.569862 273.03898,41.63529 273.03898,41.63529 C 275.27046,42.047683 276.32722,43.115346 277.07964,45.719572 C 277.07964,45.724529 281.58524,58.812078 281.58524,58.812078 L 282.7332,61.920891 C 284.58897,67.006418 285.61698,69.80891 295.34689,72.688726 C 296.92212,73.156634 298.68272,72.707561 299.61259,72.016604 C 300.17864,71.593306 300.49289,71.0451 300.49289,70.478059 C 300.48793,69.665167 299.85249,68.9524 298.88892,67.877798 L 296.06957,64.135524 C 294.35358,61.058433 293.26807,58.308482 291.33299,52.915643 C 290.28912,50.185518 289.88169,46.81301 289.55256,44.105686 C 289.55256,44.105686 289.19866,41.843469 289.02914,40.768867 C 296.36598,38.93887 300.8349,34.748515 302.16923,28.172026 z M 288.29357,26.917002 C 287.39543,31.326441 285.59914,34.167595 282.65488,35.856823 C 280.83877,36.945304 278.22859,37.149518 274.65385,36.490283 C 274.64989,36.490283 274.00949,36.369341 273.39982,36.25732 C 273.73985,34.590893 277.46626,16.17395 277.46626,16.17395 C 277.78448,14.612604 278.04916,13.947421 278.43677,13.719415 C 278.6618,13.567741 279.38151,13.222758 281.72204,13.658944 C 283.95154,14.068363 285.85292,15.2877 287.07126,17.087957 C 288.68812,19.479047 289.11043,22.879311 288.29357,26.917002 z"
   id="path2880" /><path
   id="path2884"
   d="M 335.97956,31.786418 C 331.65736,32.699434 327.89129,35.328443 325.38124,39.186703 C 320.75173,46.329241 323.18743,53.727542 328.267,62.641589 C 332.01126,69.512502 332.60903,73.525409 330.39043,76.947483 C 328.98473,79.10561 327.17753,80.469681 325.16711,80.89298 C 323.34505,81.275633 321.4288,80.857292 319.6117,79.670669 C 313.3564,75.603239 314.29816,65.331069 315.83572,59.902542 L 316.08751,59.012327 L 311.44016,57.854452 L 311.11996,58.503774 C 309.3425,62.084461 305.83517,69.564052 305.29985,72.226766 L 305.21956,72.620324 L 308.73085,77.344015 C 310.51822,79.464472 312.83198,81.482821 315.41341,83.168084 C 320.9946,86.798337 327.06948,88.160426 332.52576,87.002551 C 336.99369,86.052856 340.83014,83.409968 343.3273,79.558648 C 348.51791,71.587358 344.99571,63.364269 340.41477,55.669559 C 336.17386,48.346599 335.5176,44.904699 337.71934,41.505425 C 338.90993,39.670472 340.61006,38.434283 342.50747,38.033785 C 344.32557,37.646175 346.25768,38.047664 347.95285,39.145067 C 352.13726,41.871226 353.14643,46.85762 351.04085,54.393717 L 350.81879,55.195703 L 355.21931,56.797694 L 358.16158,50.607824 L 361.16927,44.375328 L 360.68649,43.734928 C 359.52267,42.260819 356.43765,38.349028 351.98856,35.439472 C 346.65222,31.962875 341.11663,30.69992 335.97956,31.786418 z" /><path
   id="path2888"
   d="M 379.54161,55.473276 L 377.11879,58.031901 L 377.65609,58.644543 C 381.32204,62.801193 380.35846,65.121898 375.36513,70.431466 L 353.14941,94.097506 C 348.59127,98.939165 348.13426,98.782535 343.50078,95.170125 L 342.8584,94.666529 L 339.58998,98.151057 L 340.38602,98.750812 C 340.44749,98.793439 346.17044,103.10474 350.30131,107.08394 L 359.65848,116.50951 L 360.30483,115.85325 L 362.71277,113.31743 L 362.17052,112.70379 C 358.34993,108.38655 358.03369,108.03264 362.70088,103.06707 L 384.93048,79.404001 C 390.09036,73.902115 392.09086,72.880053 396.32087,76.175236 L 396.96524,76.674867 L 400.14245,73.286499 L 390.30151,63.580379 L 380.11856,54.843781 L 379.54161,55.473276 z M 351.53949,105.7962 L 351.54345,105.79917 L 351.53255,105.79025 L 351.53949,105.7962 z" /><path
   id="path2892"
   d="M 407.81634,82.98667 L 400.03638,87.777772 L 392.93647,92.113853 L 395.66064,96.023661 L 396.30997,95.783759 C 399.58334,94.574336 402.88645,93.506672 404.8711,93.86256 C 406.44335,93.992424 407.79255,94.516838 411.72813,100.17635 C 411.72813,100.17635 412.36655,101.10324 412.85032,101.80015 C 411.45254,102.77363 380.77482,124.13086 380.77482,124.13086 C 375.18768,128.00895 374.84369,127.59259 370.63053,122.49517 L 370.10612,121.85972 L 366.2201,124.56507 L 375.25212,136.09325 L 382.97161,148.62764 L 383.75972,148.10818 L 386.87151,145.94212 L 386.45515,145.23035 C 384.82639,142.4457 383.93915,140.83181 383.93915,139.55993 C 383.93915,137.99165 385.29132,136.95273 388.25838,134.89077 C 388.25838,134.89077 415.7004,115.79674 420.34577,112.56302 C 420.94454,113.42548 422.00823,114.9551 422.00823,114.9551 C 424.55001,118.60816 425.23997,120.35984 425.23997,121.78835 C 425.23997,122.03222 425.22015,122.26914 425.18347,122.50211 C 424.84741,124.37473 423.25632,126.86892 420.31504,130.10958 L 419.80847,130.66869 L 422.7101,134.36834 L 436.72157,123.32888 L 436.37956,122.64486 L 435.14535,120.41436 L 434.69231,120.35786 C 433.31734,120.19032 432.93567,119.60048 432.09502,118.3058 L 422.05086,103.11168 L 412.07213,89.494757 C 412.09294,89.526479 411.18885,88.325978 411.18885,88.325978 C 410.30062,87.211722 410.06369,86.910357 410.50781,85.756448 L 410.69219,85.270696 L 408.49739,82.567337 L 407.81634,82.98667 z" /><path
   id="path2896"
   d="M 213.6077,3.5364654 C 204.93554,4.2105703 193.95556,5.9126852 193.84553,5.9305292 L 193.02371,6.0574195 L 193.40637,10.649264 L 194.2262,10.651246 C 199.82722,10.659177 200.28422,10.659177 200.84928,17.52216 L 203.35834,52.493336 C 203.8996,59.026205 203.65673,59.326579 196.78284,60.4676 L 195.96796,60.604404 L 196.38432,65.401454 L 197.38755,65.163534 C 197.4966,65.138751 208.24956,62.634649 219.69547,61.90503 C 231.15525,61.170454 240.02568,61.805897 240.11292,61.81581 L 240.90995,61.871325 L 241.05468,61.087182 C 241.52754,58.562263 242.53573,50.468047 242.81528,46.548325 L 242.87774,45.688841 L 238.21154,45.175332 L 237.99048,45.87422 C 236.80782,49.625416 235.58353,51.67747 234.10248,53.602635 C 232.49949,55.756797 229.69998,56.39224 225.69698,56.724335 C 220.97527,57.113928 219.2682,56.590506 218.6744,56.233627 C 217.39756,55.481207 216.73535,54.447249 216.41416,50.591963 C 216.41416,50.591963 215.50709,39.46031 215.24538,36.279129 C 216.50834,36.174048 220.0008,35.882597 220.0008,35.882597 C 226.81818,35.313573 227.49327,35.418654 228.94557,40.848173 L 229.14087,41.56887 L 233.80508,41.18126 L 232.24671,22.463944 L 227.58051,22.851554 L 227.50418,23.591087 C 226.97382,28.896689 226.45238,29.309083 219.49819,29.892977 C 219.49819,29.892977 216.03746,30.177489 214.7626,30.285544 C 214.65455,28.636961 213.5393,11.895366 213.5393,11.895366 C 213.50262,11.465129 213.47586,11.125102 213.47586,10.853478 C 213.47586,9.8096065 213.89519,9.7768926 215.92742,9.6063837 L 219.97899,9.2703225 C 224.32994,8.9074955 226.55548,9.2386 227.9017,10.448024 C 229.23504,11.572193 230.5208,13.845314 231.63307,17.039382 L 231.8928,17.786845 L 236.58873,16.756853 L 235.5181,10.711717 L 234.28885,2.5867705 L 233.49876,2.5709092 L 213.6077,3.5364654 z" /><path
   id="path2950"
   d="M 441.20635,133.40476 L 437.71091,134.40402 L 437.82293,135.17429 C 438.46532,139.68187 438.61501,140.75251 434.42961,145.05488 C 434.42663,145.05885 418.96485,160.55632 418.96485,160.55632 C 417.75146,161.63786 415.12344,163.03465 413.23892,163.59772 L 404.15932,166.2872 C 397.23389,168.34124 397.03463,167.83467 394.64255,161.67355 L 394.34713,160.91221 L 389.34785,162.35459 L 389.81378,163.31123 C 389.83856,163.36278 392.38826,168.65946 394.90922,176.2709 C 397.42521,183.88035 398.38879,188.79438 398.40068,188.84097 L 398.5593,189.67369 L 402.69017,189.09376 L 402.48992,188.15299 C 400.97517,181.05704 401.07628,180.88158 407.8897,178.85926 L 418.34527,175.76234 C 420.93661,174.99208 423.67268,174.1782 425.92498,174.68477 C 434.41474,176.26098 439.73224,177.67958 445.80315,179.37674 C 451.30107,180.90834 452.94767,181.91355 454.91149,186.57479 L 455.21682,187.29549 L 459.48351,186.12671 L 457.29168,175.89221 L 454.35238,165.3157 L 453.50182,165.57741 L 449.14393,166.77097 L 449.28272,167.568 C 449.59003,169.39503 449.92708,171.90508 449.31642,172.56828 C 448.96847,172.94696 447.99795,172.94696 446.54764,172.82305 C 442.4584,172.47013 435.76493,171.15067 430.38696,170.08896 C 430.38696,170.08896 428.69674,169.76182 427.2831,169.4892 C 428.71161,168.08449 431.26627,165.5675 431.26627,165.5675 L 440.97239,156.13895 C 442.33646,154.92061 443.21676,154.45468 443.89682,154.59842 C 444.69583,154.76695 445.54143,155.82073 446.41083,157.73797 L 446.72806,158.43487 L 451.68372,157.03214 L 447.19993,145.39094 L 441.95183,133.16783 L 441.20635,133.40476 z" /><path
   d="M 74.867989,291.11657 L 74.852127,291.03429 C 72.366861,282.93115 67.450852,276.73632 60.635453,273.13085 C 53.583126,269.39552 44.849502,268.70357 36.673005,271.2275 C 19.822365,276.43 11.1849,291.94433 16.137588,308.1169 C 18.505878,315.86712 23.500202,322.09367 30.203581,325.64561 C 37.318362,329.41762 45.738725,329.97277 54.553638,327.24859 C 70.899692,322.19974 79.63629,306.66856 74.867989,291.11657 z M 48.009864,313.9261 C 39.329772,316.60665 31.875956,316.66713 27.019426,314.09958 C 24.419166,312.71965 22.613952,310.58928 21.804035,307.93846 C 19.045161,298.90644 27.610259,289.36389 42.632886,284.72546 C 50.992778,282.14502 58.685505,282.20153 63.740301,284.87515 C 66.461504,286.31753 68.333136,288.48359 69.149001,291.14333 L 69.173785,291.21966 C 71.927702,300.19815 63.619358,309.11219 48.009864,313.9261 z"
   id="path2918" /><path
   d="M 86.002616,316.09414 L 81.436546,319.71646 L 81.904455,320.41832 C 85.05986,325.14994 85.388982,325.64462 79.524269,330.32766 L 54.498124,350.30992 C 48.425232,355.15653 48.088179,354.81849 43.988035,350.66085 L 43.413063,350.07894 L 39.838324,352.89729 L 48.377648,364.48 L 57.499874,375.56506 L 61.58713,372.3819 L 61.096422,371.66814 C 59.284269,369.03417 58.254276,367.53627 58.254276,366.2178 C 58.254276,364.66439 59.689723,363.35682 62.973011,360.73475 C 62.973011,360.73475 70.65285,354.61031 72.981486,352.7476 C 73.85584,353.82022 76.896251,357.55258 76.896251,357.55258 C 79.348804,360.56325 80.469008,362.14839 80.469008,363.54319 C 80.469008,364.82399 79.519313,365.94221 77.786466,367.85846 L 77.258087,368.44037 L 80.296516,372.16678 L 95.226949,360.25891 L 92.190503,356.52061 L 91.51838,356.89335 C 87.117863,359.32706 86.374365,359.41628 81.704206,353.68837 C 81.704206,353.68837 78.688577,349.98476 77.805302,348.89826 C 79.112867,347.85241 92.070552,337.50589 92.070552,337.50589 C 93.733013,336.17949 93.733013,336.17552 95.288411,338.09672 C 95.293368,338.0997 98.025476,341.45535 98.025476,341.45535 C 100.95981,345.05388 101.85102,347.03853 101.55263,349.30669 C 101.23243,351.24177 100.09438,353.51192 98.079999,356.2242 L 97.573429,356.90425 L 101.15213,360.02298 L 113.75789,348.40359 L 113.07586,347.72056 C 113.00448,347.65216 105.82031,340.62362 99.335024,333.034 C 92.869564,325.4751 87.411297,316.43515 87.355782,316.34494 L 86.818481,315.45175 L 86.002616,316.09414 z"
   id="path2956" />
<g
   id="Samisk"
   display="none">
	<g
   display="inline"
   id="g2959">
		<g
   id="g2961">
			<g
   id="g2963">
				<path
   d="M134.442,86.988c-0.038-0.724-0.321-1.297-0.797-1.622c-0.696-0.454-1.66-0.318-3.116-0.113l-4.764,0.267      c-3.536-0.289-6.483-0.935-12.167-2.363c-2.907-0.667-5.998-2.246-8.48-3.515c0,0-2.183-1.019-3.151-1.471      c0.906-2.543,1.523-4.995,1.523-7.254c0-4.207-1.562-7.914-4.681-11.083c-3.818-3.872-8.384-5.451-13.209-4.568      c-4.649,0.822-8.356,3.579-13.565,8.368l-8.488,8.381l-9.138,10.387l0.633,0.593l2.813,2.852l0.66-0.558      c4.299-3.628,4.931-3.861,9.795,1.078c0.002,0,24.263,24.624,24.263,24.624c4.977,5.058,4.697,5.84,1.014,10.461l-0.517,0.646      l3.522,3.572l8.887-10.742l9.84-9.737l-0.542-0.682l-2.191-2.564l-0.709,0.608c-4.529,3.868-5.092,4.078-10.098-1.012      c0,0-6.554-6.655-8.584-8.721c0.251-0.259,0.509-0.528,0.509-0.528c1.605-1.656,3.108-1.945,5.738-1.107      c0.002,0.003,13.502,3.594,13.502,3.594l3.404,0.824c5.356,1.315,8.305,2.039,16.252-4.602c1.231-1.028,1.848-2.681,1.848-3.858      C134.444,87.092,134.442,87.038,134.442,86.988z M94.25,80.823c-0.11,2.173-1.417,4.514-3.999,7.178      c0,0-0.463,0.474-0.899,0.925c-1.227-1.242-14.684-14.898-14.684-14.898c-1.105-1.125-1.53-1.729-1.53-2.189      c0-0.011,0.002-0.045,0.002-0.047c0-0.287,0.133-1.106,1.814-2.83c1.606-1.663,3.706-2.584,5.919-2.596      c2.934-0.011,6.052,1.563,9.007,4.559c2.982,3.039,4.394,5.966,4.394,9.138C94.275,80.313,94.266,80.565,94.25,80.823z"
   id="path2965" />
			</g>
		</g>
		<g
   id="g2967">
			<path
   d="M274.507,8.573c-3.884,2.191-6.712,5.86-7.959,10.335c-2.292,8.275,2.291,14.659,9.88,21.701     c5.677,5.476,7.463,9.158,6.365,13.116c-0.699,2.506-2.024,4.369-3.832,5.383c-1.632,0.917-3.608,1.092-5.711,0.5     c-7.248-2.015-9.456-12.181-9.62-17.872l-0.027-0.936l-4.821,0.29l-0.112,0.723c-0.627,3.983-1.737,12.238-1.448,14.964     l0.043,0.402l4.809,3.482c2.347,1.497,5.185,2.735,8.196,3.58c6.463,1.812,12.719,1.285,17.617-1.479     c4.016-2.266,6.909-5.973,8.146-10.435c2.59-9.242-3.294-16.087-10.03-22.103c-6.303-5.768-7.976-8.883-6.88-12.821     c0.588-2.127,1.848-3.824,3.549-4.787c1.634-0.921,3.617-1.132,5.58-0.583c4.851,1.36,7.336,5.852,7.588,13.736l0.025,0.842     l4.729,0.212l0.922-6.587l1.043-7.167l-0.669-0.479c-1.563-1.066-5.722-3.901-10.88-5.345     C284.828,5.517,279.122,5.973,274.507,8.573z"
   id="path2969" />
		</g>
		<g
   id="g2971">
			<path
   d="M328.194,25.162c-4.362,0.924-8.161,3.574-10.692,7.468c-4.67,7.202-2.212,14.668,2.912,23.659     c3.774,6.931,4.377,10.979,2.142,14.429c-1.421,2.178-3.24,3.554-5.269,3.983c-1.841,0.386-3.773-0.036-5.607-1.236     c-6.31-4.103-5.36-14.462-3.806-19.939l0.252-0.901l-4.687-1.167l-0.326,0.653c-1.792,3.616-5.331,11.159-5.871,13.848     l-0.078,0.397l3.543,4.762c1.799,2.142,4.133,4.178,6.737,5.878c5.63,3.662,11.764,5.035,17.262,3.866     c4.507-0.957,8.38-3.624,10.897-7.507c5.237-8.04,1.684-16.335-2.937-24.1c-4.281-7.385-4.942-10.857-2.72-14.289     c1.202-1.85,2.915-3.095,4.828-3.501c1.834-0.392,3.786,0.011,5.493,1.122c4.225,2.748,5.242,7.781,3.118,15.382l-0.227,0.807     l4.441,1.615l2.97-6.244l3.03-6.284l-0.483-0.651c-1.172-1.484-4.285-5.431-8.778-8.368     C338.958,25.342,333.379,24.065,328.194,25.162z"
   id="path2973" />
		</g>
		<g
   id="g2975">
			<path
   d="M75.256,299.642l-3.542,1.842l0.364,0.813c1.313,2.924,1.814,4.565,1.814,5.612c0,1.109-0.564,1.547-1.326,2.13     c-0.027,0-30.226,16.126-30.226,16.126c-11.022,5.387-11.386,4.875-14.844-0.059L27,325.397l-4.003,2.31l6.768,12.631     l7.338,12.026l3.996-2.141l-0.358-0.805c-2.457-5.461-2.657-5.911,3.704-9.301l30.36-16.207c6.396-3.417,6.68-3.008,10.161,1.97     l0.531,0.76l4.846-3.278l-7.596-11.813c-3.626-5.745-6.171-11.402-6.196-11.458l-0.409-0.913L75.256,299.642z"
   id="path2977" />
		</g>
		<g
   id="g2979">
			<path
   d="M291.832,386.961l-13.06,4.012c-6.51,1.967-12.475,2.928-12.534,2.938l-0.988,0.156l1.129,5.033l0.865-0.134     c6.009-0.913,6.494-0.984,8.067,6.032l7.259,32.814c1.54,6.902,1.136,7.225-4.692,9.29l-0.789,0.278l1.078,4.802l14.424-3.257     l13.259-3.707l-0.21-0.872l-0.888-3.907l-0.865,0.132c-5.924,0.899-6.405,0.977-7.979-6.059l-7.244-32.801     c-1.585-7.084-1.117-7.251,4.603-9.279l0.796-0.28l-1.255-5.492L291.832,386.961z"
   id="path2981" />
		</g>
		<g
   id="g2983">
			<path
   d="M337.772,362.013l-2.124,1.617l-0.067,0.347c-0.345,1.811-0.858,2.503-2.617,3.511     c-0.159,0.101-6.907,5.001-14.903,9.598c-8.459,4.852-15.169,6.911-15.236,6.93c0.022-0.005-1.077,0.339-1.077,0.339     c-1.326,0.431-2.583,0.844-3.67,0.401l-0.326-0.131l-3.423,1.251l4.99,9.303l4.438,8.339l4.226-2.418l-0.214-0.699     c-0.846-2.763-1.601-5.545-1.601-7.551c0-0.477,0.044-0.912,0.14-1.292c0.221-1.507,0.859-2.867,6.955-6.325     c0-0.002,1.021-0.583,1.771-1.015c0.893,1.456,21.172,34.533,21.172,34.533c1.556,2.54,2.374,4.064,2.374,5.257     c0,1.621-1.496,2.65-4.672,4.83l-0.738,0.505l2.381,3.667l13.286-7.006l12.821-7.623l-0.518-0.792l-1.949-3.061l-0.728,0.342     c-6.695,3.123-7.093,3.02-10.648-2.783c0,0-18.05-29.439-21.147-34.487c0.945-0.535,2.546-1.446,2.546-1.446     c4.116-2.343,6.138-2.981,8.036-2.539c1.919,0.513,4.414,2.36,7.606,5.632l0.523,0.535l4.035-2.591l-10.86-15.737     L337.772,362.013z"
   id="path2985" />
		</g>
		<g
   id="g2987">
			<path
   d="M404.985,224.778v2.67l0.458,0.267c1.228,0.714,1.281,1.417,1.271,3.349v0.939c0,0.042-0.256,8.354-1.331,17.528     c-1.183,10.106-2.67,16.6-2.686,16.66c-0.696,2.691-1.361,3.822-2.291,3.889l-0.641,0.047l-1.097,3.786l10.239,1.451l9.563,1.382     l0.102-0.939l0.447-3.891l-0.694-0.244c-3.37-1.177-6.675-2.482-7.986-4.057c-0.756-0.751-1.33-1.624-1.33-4.462     c0-1.22,0.106-2.797,0.351-4.887c0,0,0.138-1.163,0.235-2.021c1.698,0.138,40.364,3.38,40.364,3.38     c6.309,0.53,7.357,0.994,7.357,5.794c0,0.572-0.013,1.211-0.038,1.916l-0.028,0.885l4.592,0.313l2.206-14.63     c0-0.005,1.237-15.136,1.237-15.136l-0.936-0.038l-3.617-0.24l-0.16,0.791c-1.402,7.044-2.17,7.634-9.117,7.053     c0,0-34.41-2.89-40.306-3.389c0.123-1.075,0.336-2.912,0.336-2.912c0.554-4.698,1.238-6.711,2.718-7.965     c1.545-1.25,4.507-2.167,9.041-2.793l0.746-0.104l0.293-4.787l-19.267-0.547L404.985,224.778z"
   id="path2989" />
		</g>
		<g
   id="g2991">
			<g
   id="g2993">
				<path
   d="M218.654,413.798c0.255-1.229,0.377-2.425,0.377-3.583c0-3.775-1.338-7.159-3.957-9.916      c-3.16-3.359-5.657-4.282-13.21-5.937c-0.05-0.009-13.061-2.737-13.061-2.737l-13.093-4.033l-0.308,0.875l-1.308,4.263      l0.871,0.282c5.656,1.821,5.959,2.399,4.622,8.845c0,0.002-6.878,33.245-6.878,33.245c-1.413,6.802-2.115,6.95-8.088,6.228      l-0.813-0.097l-1.147,4.631l13.292,3.761l14,3.05l0.211-0.858l1.213-4.57l-0.846-0.267c-4.065-1.292-5.512-1.85-5.512-4.481      c0-1.104,0.254-2.564,0.674-4.593c0,0,1.838-8.89,2.426-11.719c0.343,0.075,0.701,0.155,0.701,0.155      c2.315,0.503,3.404,1.628,4.166,4.296c0.001,0.012,1.298,4.493,1.298,4.493l3.06,9.912l0.427,1.287      c1.1,3.439,2.345,7.34,11.195,8.954c0.003,0,0.667,0.127,0.667,0.127c3.02,0.576,4.944,0.867,5.815,0.654h0.01      c0.874-0.216,1.536-0.912,1.685-1.771c0.02-0.115,0.031-0.229,0.031-0.342c0-0.559-0.248-1.059-0.691-1.359      c-0.969-0.632-2.477-1.618-3.675-3.571c-1.27-2.23-2.26-4.522-3.809-10.161l-2.112-7.35c0,0-1.205-4.206-1.57-5.489      C212.744,424.42,217.291,420.36,218.654,413.798z M204.464,412.078c-0.908,4.399-2.733,7.187-5.745,8.779      c-1.853,1.026-4.525,1.134-8.19,0.337c0,0-0.681-0.147-1.318-0.287c0.343-1.646,4.173-20.136,4.173-20.136      c0.363-1.755,0.648-2.234,0.969-2.413c0.171-0.11,0.888-0.47,3.36,0.072C202.144,399.394,206.245,403.488,204.464,412.078z"
   id="path2995" />
			</g>
		</g>
		<g
   id="g2997">
			<g
   id="g2999">
				<path
   d="M172.051,36.549c-7.298-15.641-24.026-22.229-38.901-15.316l-0.076,0.032c-7.76,3.603-13.27,9.37-15.936,16.682      c-2.758,7.561-2.246,16.382,1.405,24.203c7.525,16.119,24.221,22.609,39.702,15.435c7.417-3.445,12.948-9.298,15.571-16.484      C176.599,53.47,175.989,44.979,172.051,36.549z M162.714,65.87c-1.019,2.792-2.895,4.887-5.433,6.065      c-8.641,4.003-19.362-3.237-26.072-17.607c-3.736-8.002-4.744-15.699-2.765-21.125c1.066-2.915,2.971-5.079,5.51-6.253      l0.074-0.036c8.589-3.99,18.646,3.079,25.616,18.004C163.522,53.224,164.612,60.661,162.714,65.87z"
   id="path3001" />
			</g>
		</g>
		<g
   id="g3003">
			<path
   d="M230.591,401.746c-3.236,3.191-4.949,7.373-4.952,12.105c-0.007,8.669,6.294,13.737,15.75,18.681     c7.14,3.889,9.929,7.034,9.934,11.198c-0.007,2.6-0.793,4.746-2.277,6.206c-1.371,1.351-3.296,2.047-5.566,2.013     c-7.767-0.11-12.747-9.496-14.467-15.023l-0.278-0.898l-4.681,1.536l0.085,0.752c0.477,4.061,1.65,12.434,2.673,15.032     l0.15,0.382l5.705,2.157c2.772,0.855,5.927,1.337,9.118,1.385c6.951,0.095,13.039-2.071,17.138-6.106     c3.344-3.296,5.119-7.534,5.128-12.255c0.003-9.729-7.701-14.903-16.028-19.043c-7.838-4.014-10.355-6.634-10.351-10.771     c0-2.21,0.77-4.186,2.166-5.562c1.369-1.35,3.289-2.074,5.41-2.045c5.2,0.072,8.898,3.833,11.307,11.492l0.253,0.804l4.739-1.006     l-0.919-6.84l-0.924-7.168l-0.759-0.285c-1.846-0.637-6.741-2.335-12.268-2.413C240.11,395.981,234.396,397.995,230.591,401.746z     "
   id="path3005" />
		</g>
		<path
   d="M38.201,146.255c-0.102-5.264,4.202-9.565,9.373-9.696c5.439,0.131,9.743,4.432,9.693,9.696    c0.05,5.349-4.254,9.652-9.693,9.693C42.402,155.908,38.099,151.604,38.201,146.255L38.201,146.255z"
   id="path3007" />
		<path
   d="M406.709,145.606c-0.012-5.182,4.286-9.486,9.697-9.37c5.206-0.116,9.51,4.188,9.366,9.37    c0.144,5.431-4.16,9.73-9.366,9.698C410.995,155.337,406.697,151.037,406.709,145.606L406.709,145.606z"
   id="path3009" />
		<path
   d="M317.944,127.853c3.703,3.976,8.517,8.262,11.638,12.28l-25.206,0.325c0.993,2.155,2.924,4.08,4.52,6.459h28.115    c2.546,3.691,5.341,7.306,6.464,11.953l-38.129-0.326c-6.522,4.679-13.216,9.59-19.39,14.87    c-0.086-0.078-22.281-16.646-31.99-24.884c12.016-6.784,24.057-13.717,36.192-20.677H317.944L317.944,127.853z"
   id="path3011" />
		<path
   d="M181.901,232.552c8.487,6.748,17.637,13.015,25.53,20.036l-38.133,21.972c-4.141-2.609-8.087-7.909-12.28-11.31h-51.056    c-1.283-3.148-1.475-6.996-2.586-10.337c10.547-0.42,21.431-0.132,32.315-0.325l0.323-0.325l-1.94-6.466l-31.345-0.316    c-0.457-4.353-1.519-8.491-2.584-12.612v-0.316H181.901L181.901,232.552z"
   id="path3013" />
		<path
   d="M361.894,199.265l-33.604-0.326c-0.526-2.49-0.766-4.175-1.615-7.428l33.283-0.318    c-1.522-5.146-3.158-10.441-6.782-14.543h-72.068l-63.013-48.796L147,127.529c-4.474,3.626-8.085,8.526-11.957,12.929h32.639    c-1.186,2.042-2.623,4.658-4.202,6.459h-35.224c-2.112,2.48-6.533,8.167-7.109,11.627h72.062l16.806,18.423l-47.504,0.326    c-16.424,1.531-30.677,9.621-42.008,21.972c-2.824,3.445-7.833,6.427-7.756,11.315c0.696,1.468,0.888,3.49,2.91,3.879h28.759    c3.501,0.96,3.406,5.295,5.494,7.753h142.825c1.949-3.709,4.259-7.712,7.117-10.667h63.981    C363.445,207.429,362.476,203.434,361.894,199.265z M174.145,211.221h-19.066c-2.152-1.87-2.539-4.658-4.846-6.138H128.58    c7.204-9.886,18.183-15.283,29.409-18.099h16.156V211.221z M196.442,212.519c-7.195,0.162-13.123-5.768-13.249-12.929    c0.126-7.463,6.054-13.398,13.249-13.247c7.432-0.151,13.358,5.784,13.249,13.247    C209.801,206.751,203.874,212.681,196.442,212.519z"
   id="path3015" />
		<path
   d="M363.189,245.155c0.922-3.827,1.41-8.553,1.617-12.927l-0.648-0.648H257.844l-87.901,49.122l-57.844-0.323    c2.786,4.233,5.196,9.093,7.756,13.57l31.348-0.325c2.011,1.916,3.166,4.617,4.847,6.79l-0.648,0.646l-31.667-0.325    c3.19,4.968,6.56,10.41,11.957,12.607l31.991,0.32c4.552,3.805,7.586,7.014,12.28,8.723l116.011,0.323    c3.332-0.781,4.585-3.763,7.106-5.489l26.823,0.323l2.266-0.976c0.938-1.479,1.998-2.92,1.612-4.842    c-8.567-13.103-20.995-23.599-35.541-28.763c-11.261-5.431-27.297-3.452-38.783-3.23l18.746-17.128l81.106,0.323    c1.147-3.452,2.592-6.674,2.909-10.34c-12.067-0.089-35.947-0.039-35.869,0c0.931-2.155,1.362-4.857,1.614-7.107L363.189,245.155z     M274.001,288.782c13.844-2.198,25.593,2.621,35.864,10.013c3.304,2.428,6.964,5.993,9.049,9.05    c-5.359,0.603-12.775,0.024-19.062,0.648l-3.88,4.85l-21.972-0.325C273.879,313.117,273.879,295.931,274.001,288.782z     M266.887,300.735c-0.081,7.357-6.006,13.286-13.246,13.255c-7.388,0.031-13.319-5.897-13.25-13.255    c-0.068-7.266,5.863-13.192,13.25-13.247C260.881,287.543,266.806,293.47,266.887,300.735z"
   id="path3017" />
		<path
   fill="none"
   stroke="#000000"
   stroke-width="10.7717"
   stroke-miterlimit="3.8637"
   d="M80.108,228.026    C80.152,143.743,148.344,75.548,232.31,75.5c84.281,0.047,152.478,68.243,152.528,152.526    c-0.05,83.966-68.247,152.161-152.528,152.207C148.344,380.188,80.152,311.992,80.108,228.026L80.108,228.026z"
   id="path3019" />
		<g
   id="g3021">
			<path
   d="M230.798,0.795l-0.616,0.008l-0.197,0.574c0,0-13.496,35.919-14.795,39.378c-1.691-3.278-19.251-37.302-19.251-37.302     l-9.104,1.635l-8.826,1.968l0.11,0.751l0.23,3.797l0.82,0.03c6.554,0.21,7.157,0.503,7.057,10.139l-0.343,16.932     c0,0.002-0.675,14.363-0.675,14.363l-0.135,1.791c-0.17,2.542-1.054,6.988-5.045,8.181l-0.772,0.232l0.827,4.518l10.052-2.729     l10.785-2.324l-0.036-0.777l-0.231-3.802l-0.824-0.025c-5.907-0.172-6.662-0.922-7.099-3.789     c-0.508-2.723-0.543-6.974-0.543-13.654c0,0,0.288-12.183,0.439-18.653c2.734,6.045,17.903,39.645,17.903,39.645l3.515-0.212     c0,0,13.225-37.021,15.244-42.676c0.373,5.641,1.919,29.203,1.919,29.203c0.032,0.54,0.049,1.042,0.049,1.498     c0,4.819-1.817,5.263-5.546,5.713l-0.841,0.102l0.281,4.681l13.138-0.086l13.813,1.116l-0.031-1.037l-0.228-3.711l-0.731-0.102     c-5.876-0.806-6.331-1.394-6.955-8.982c0-0.002-2.692-31.787-2.692-31.787c-0.315-3.712-0.263-6.484,1.003-7.941     c0.843-0.972,2.311-1.489,4.62-1.618l0.903-0.054l-0.28-4.692l-9.422-0.418L230.798,0.795z"
   id="path3023" />
		</g>
		<g
   id="g3025">
			<g
   id="g3027">
				<path
   d="M393.542,64.051l-4.264-3.729l-0.532,0.244c0,0-43.453,19.986-43.455,19.986s-4.022,1.604-4.022,1.604      c-5.078,2.087-8.141,3.345-11.921,1.367l-0.57-0.299l-3.419,3.237c0,0,3.872,2.337,8.114,5.437s8.991,6.806,8.991,6.806      l3.17-3.124l-0.474-0.64c-1.188-1.611-1.792-2.995-1.792-4.121c0-0.232,0.03-0.456,0.08-0.668      c0.287-1.184,1.418-2.223,3.555-3.269c0.007-0.007,7.922-3.675,8.116-3.766c0.78,0.821,9.606,10.139,10.384,10.961      c-0.498,0.972-4.356,8.519-4.356,8.519c-0.588,1.18-1.32,1.873-2.186,2.081c-1.044,0.248-2.393-0.179-3.803-1.207l-0.623-0.459      l-3.267,3.265c0,0,5.594,5.349,9.461,9.52s8.218,9.676,8.218,9.676l0.708-0.633l2.802-2.647l-0.579-0.658      c-2.16-2.435-2.582-5.083,1.109-12.777l8.723-18.422l12.341-25.814L393.542,64.051z M368.558,88.1      c-1.272-1.34-6.111-6.45-7.399-7.81c1.602-0.703,5.521-2.417,5.521-2.417s6.691-2.89,9.379-4.047      C374.582,76.632,369.461,86.376,368.558,88.1z"
   id="path3029" />
			</g>
		</g>
		<g
   id="g3031">
			<path
   d="M62.054,177.439c-0.969,5.305-5.686,5.915-14.049,5.185c-0.002,0-20.054-1.744-20.054-1.744     c-10.193-0.878-16.99,0.899-21.396,5.599c-3.346,3.641-5.32,8.751-5.878,15.197c-0.561,6.454,1.283,12.623,5.058,16.927     c4.391,4.876,10.76,7.345,21.303,8.262c0.002,0,9.262,0.805,9.262,0.805c6.075,0.528,9.165,1.163,11.603,1.766     c0.788,0.187,7.586,1.905,7.437,6.672l-0.032,1.019l5.307-0.474l-0.183-10.903l0.61-11.507l-0.928-0.055l-3.827-0.079     l-0.117,0.788c-0.838,5.736-5.604,6.744-7.613,6.908c-2.639,0.206-5.887,0.326-11.731-0.176l-9.09-0.789     c-8.501-0.736-14.322-2.907-17.298-6.447c-1.973-2.345-2.774-5.29-2.451-8.998c0.924-10.636,11.578-11.959,20.353-11.201     l18.52,1.611c8.234,0.721,10.161,1.435,10.208,6.791l0.007,0.812l5.248,0.497l2.431-13.189l3.739-13.271l-1.026-0.169     l-5.256-0.676L62.054,177.439z"
   id="path3033" />
		</g>
		<g
   id="g3035">
			<path
   d="M59.759,238.579l-4.443,0.533l-0.077,0.728c-0.326,3.036-1.272,5.457-3.063,7.859c-1.353,1.814-2.567,2.277-8.151,3.831     l-17.846,4.959c-6.99,1.931-10.892,2.55-13.742,3.004l-0.583,0.095c-1.94,0.349-4.625,0.249-5.734-4.624l-0.21-0.927l-4.47,1.191     l1.626,10.999l2.291,11.279l0.931-0.28l4.001-1.06l-0.215-0.873c-1.317-5.341,0.563-7.232,4.254-8.682l0.408-0.156l13.132-4.311     c0,0,12.066-3.351,17.024-4.724c-2.354,3.301-32.316,45.322-32.316,45.322l1.656,4.339l35.811-9.933     c0.002,0,13.369-3.034,13.369-3.034l1.037-0.186c3.409-0.566,4.758,0.387,6.269,4.448l0.332,0.886l4.403-1.81l-4.352-9.98     L67.63,276.75l-0.861,0.229l-3.382,0.977l0.213,0.857c0.488,1.975,0.718,3.437,0.718,4.544c0,2.396-1.07,3.16-2.93,3.908     c-0.002,0-13.035,4.215-13.035,4.215s-9.822,2.729-12.931,3.592c2.146-3.188,27.095-40.266,27.095-40.266l-1.116-7.687     l-0.693-8.645L59.759,238.579z M12.162,261.396L12.162,261.396L12.162,261.396z"
   id="path3037" />
		</g>
		<g
   id="g3039">
			<path
   d="M91.596,326.804l-3.628,2.99l0.565,0.697c3.066,3.77,2.738,5.631,0.002,11.933l-21.172,46.277l3.054,3.22l41.92-18.678     c0.16-0.079,11.361-5.824,16.949-4.395l0.527,0.134l2.93-3.199l-8.112-6.031l-7.055-6.064l-0.617,0.563l-2.406,2.387l0.49,0.632     c1.765,2.28,2.584,3.855,2.584,4.991c0,0.171-0.018,0.323-0.052,0.47c-0.251,1.085-1.514,2.118-4.218,3.45     c-6.432,3.343-15.269,7.347-26.791,12.497c0.918-2.037,2.416-5.36,2.416-5.36l10.991-24.122c0.601-1.223,1.147-2.255,1.685-2.384     c0.829-0.201,2.776,1.146,4.382,2.338l0.612,0.458l3.217-3.094l-9.66-10.356c-3.457-3.764-7.265-9.127-7.303-9.178l-0.561-0.793     L91.596,326.804z"
   id="path3041" />
		</g>
		<g
   id="g3043">
			<path
   d="M134.121,368.04l-2.268,2.875l0.816,0.538c4.608,3.057,4.938,3.518,1.529,9.724l-16.979,30.398     c-3.181,5.796-3.553,5.909-9.969,3.054l-0.734-0.33l-2.436,4.139l0.701,0.477c0.075,0.05,7.491,5.049,18.005,10.588     c10.511,5.535,20.806,9.71,20.908,9.749l0.562,0.226l0.423-0.434c1.735-1.784,7.08-7.918,9.493-11.056l0.348-0.454l-2.38-4.618     l-0.861,0.699c-3.03,2.449-6.463,5.225-8.724,6.005c-2.553,0.914-5.262-0.106-8.811-2.05c-2.099-1.161-5.009-2.852-6.037-4.205     c-0.226-0.299-0.345-0.652-0.345-1.104c0-1.02,0.616-2.528,1.987-5.027c0,0,6.704-11.96,7.483-13.353     c1.116,0.611,4.227,2.317,4.227,2.317c4.124,2.259,5.678,3.196,5.678,5.262c0,0.965-0.342,2.179-0.917,3.894l-0.238,0.713     l4.138,2.28l9.114-16.615l-4.142-2.261l-0.474,0.579c-3.404,4.159-4.075,4.21-10.245,0.828c0,0-3.097-1.694-4.216-2.313     c0.782-1.425,8.257-15.063,8.257-15.063c1.003-1.82,1.003-1.82,3.278-0.576l3.584,1.975c3.867,2.112,5.554,3.63,6.016,5.403     c0.497,1.696,0.309,4.322-0.535,7.619l-0.202,0.775l4.563,1.757l3.836-9.946l1.651-4.743l-0.804-0.327     c-0.104-0.043-10.409-4.077-18.049-8.129c-7.647-4.061-15.952-9.417-16.033-9.47l-0.689-0.45L134.121,368.04z"
   id="path3045" />
		</g>
		<g
   id="g3047">
			<path
   d="M367.834,332.866c-0.065,0.085-6.771,8.677-12.97,14.679c-6.219,6.023-14.099,12.152-14.176,12.218l-0.662,0.511     l2.495,3.761l0.765-0.611c4.341-3.445,4.883-3.619,9.726,1.536l24.098,25.803c4.529,4.801,4.522,5.187-0.169,10.412l-0.559,0.617     l3.197,3.388l0.65-0.527c0.086-0.071,8.626-7.04,17.734-15.753c9.016-8.846,13.669-14.628,13.717-14.682l0.37-0.461l-0.278-0.526     c-1.239-2.327-5.523-9.455-7.719-12.646l-0.485-0.714l-4.003,2.517l0.267,0.693c1.426,3.716,2.144,6.678,2.188,9.06     c0.091,2.696-1.719,4.963-4.663,7.748c-2.715,2.561-4.631,4.014-5.856,4.445c-1.169,0.404-2.513-0.467-5.328-3.447     c0,0-9.646-10.268-10.748-11.44c0.931-0.875,3.504-3.304,3.504-3.304c5.026-4.733,5.62-5.074,10.175-1.703l0.603,0.446     l3.459-3.237l-13.009-13.786l-3.425,3.238l0.403,0.627c1.221,1.899,1.899,3.116,1.899,4.249c0,1.559-1.296,2.954-4.261,5.756     c0,0-2.575,2.429-3.505,3.306c-1.117-1.185-11.788-12.506-11.788-12.506c-0.663-0.705-1.018-1.083-1.018-1.463     c0-0.439,0.469-0.881,1.476-1.831l2.986-2.801c3.204-3.028,5.167-4.164,7.003-4.061c1.763,0.049,4.203,1.039,7.078,2.855     l0.679,0.431l3.065-3.805l-8.093-6.489l-4.266-3.187L367.834,332.866z"
   id="path3049" />
		</g>
		<g
   id="g3051">
			<path
   d="M398.049,275.748l-3.639,11.04l-5.677,13.168l0.725,0.422l3.373,1.767l0.45-0.688c3.154-4.882,3.413-5.277,9.514-2.105     c0,0,8.932,4.679,10.308,5.398c-0.742,1.415-9.207,17.607-9.947,19.027c-1.379-0.721-10.309-5.39-10.309-5.39     c-3.774-1.969-5.149-2.882-5.149-4.521c0-1.008,0.517-2.284,1.318-4.256l0.307-0.753l-3.986-2.107l-6.283,10.753l-8.535,12.261     l0.861,0.501l3.688,2.051l0.475-0.566c3.977-4.701,5.024-4.851,11.168-1.631c0.011,0.001,30.327,15.615,30.327,15.615     c6.086,3.176,5.909,3.614,3.749,8.927l-0.307,0.753l4.092,2.156l8.146-12.476L439,334.106l-0.85-0.417l-3.559-1.814l-0.442,0.682     c-2.998,4.617-4.537,4.823-10.99,1.46c-0.01-0.006-11.432-5.817-14.547-7.401c0.748-1.428,9.202-17.604,9.939-19.021     c1.425,0.746,13.255,6.927,13.255,6.927c4.832,2.524,7.302,4.167,7.302,7.106c0,1.006-0.29,2.16-0.861,3.552l-0.317,0.761     l4.208,2.207l6.411-13.942l4.429-11.754l-0.716-0.346l-3.363-1.763l-0.446,0.691c-3.152,4.867-4.223,5.054-10.435,1.812     l-29.098-15.203c-6.332-3.325-7.044-4.094-5.471-9.942l0.21-0.772l-5.296-2.121L398.049,275.748z"
   id="path3053" />
		</g>
		<g
   id="g3055">
			<g
   id="g3057">
				<path
   d="M465.288,222.248l-0.563-10.215l-0.896,0.072l-3.791,0.214l-0.049,0.796c-0.184,2.807-0.617,4.368-1.365,4.913      c-0.689,0.503-1.981,0.32-3.709-0.108c-0.012-0.002-8.519-2.324-8.646-2.36c-0.064-1.128-0.806-13.942-0.871-15.069      c1.009-0.427,8.816-3.708,8.816-3.708c1.68-0.725,2.547-0.919,3.016-0.673c0.732,0.377,1.205,2.221,1.539,3.787l0.161,0.759      l4.757-0.28l-2.194-13.598l-2.545-12.1l-0.766,0.09l-3.843,0.219l0.016,0.868c0.092,5.374-0.282,6.493-5.209,8.571      l-30.078,12.992l-16.007,6.964l0.562,3.529l48.318,16.233c7.191,2.354,7.798,3.24,8.72,8.33l0.142,0.788l4.645-0.283      L465.288,222.248z M434.11,212.139c0,0-7.003-2.112-9.821-2.962c2.954-1.202,13.125-5.343,14.923-6.079      c0.11,1.843,0.515,8.867,0.624,10.74C438.168,213.341,434.11,212.139,434.11,212.139z"
   id="path3059" />
			</g>
		</g>
	</g>
</g>
<g
   id="Ringer"
   display="none">
	<path
   display="inline"
   opacity="0.52"
   fill="none"
   stroke="#000000"
   stroke-width="0.503"
   stroke-miterlimit="3.8637"
   d="   M61.026,228.713c0.049-93.316,77.057-168.82,171.878-168.873c95.175,0.053,172.188,75.557,172.245,168.873   c-0.057,92.965-77.07,168.47-172.245,168.521C138.083,397.183,61.075,321.678,61.026,228.713L61.026,228.713z"
   id="path3062" />
	<path
   display="inline"
   opacity="0.57"
   fill="none"
   stroke="#000000"
   stroke-width="0.6801"
   stroke-miterlimit="3.8637"
   d="   M0.34,228.775C0.406,102.546,104.496,0.411,232.665,0.34C361.312,0.411,465.41,102.546,465.486,228.775   c-0.076,125.754-104.175,227.89-232.822,227.958C104.496,456.665,0.406,354.529,0.34,228.775L0.34,228.775z"
   id="path3064" />
</g>
</svg>